<?xml version="1.0" encoding="utf-8" standalone="no"?>
<!DOCTYPE svg PUBLIC "-//W3C//DTD SVG 1.1//EN"
  "http://www.w3.org/Graphics/SVG/1.1/DTD/svg11.dtd">
<svg xmlns:xlink="http://www.w3.org/1999/xlink" width="702.497791pt" height="602.579508pt" viewBox="0 0 702.497791 602.579508" xmlns="http://www.w3.org/2000/svg" version="1.1">
 <metadata>
  <rdf:RDF xmlns:dc="http://purl.org/dc/elements/1.1/" xmlns:cc="http://creativecommons.org/ns#" xmlns:rdf="http://www.w3.org/1999/02/22-rdf-syntax-ns#">
   <cc:Work>
    <dc:type rdf:resource="http://purl.org/dc/dcmitype/StillImage"/>
    <dc:date>2025-07-05T00:21:20.077900</dc:date>
    <dc:format>image/svg+xml</dc:format>
    <dc:creator>
     <cc:Agent>
      <dc:title>Matplotlib v3.7.5, https://matplotlib.org/</dc:title>
     </cc:Agent>
    </dc:creator>
   </cc:Work>
  </rdf:RDF>
 </metadata>
 <defs>
  <style type="text/css">*{stroke-linejoin: round; stroke-linecap: butt}</style>
 </defs>
 <g id="figure_1">
  <g id="patch_1">
   <path d="M 0 602.579508 
L 702.497791 602.579508 
L 702.497791 0 
L 0 0 
z
" style="fill: #ffffff"/>
  </g>
  <g id="axes_1">
   <g id="patch_2">
    <path d="M 589.417791 301.289754 
C 589.417791 264.888183 582.247476 228.840572 568.317198 195.209906 
C 554.38692 161.579241 533.967588 131.019551 508.227791 105.279754 
C 482.487994 79.539957 451.928305 59.120625 418.297639 45.190347 
C 384.666973 31.26007 348.619362 24.089754 312.217791 24.089754 
C 275.816221 24.089754 239.76861 31.26007 206.137944 45.190347 
C 172.507278 59.120625 141.947589 79.539957 116.207792 105.279754 
C 90.467994 131.019551 70.048663 161.579241 56.118385 195.209906 
C 42.188107 228.840572 35.017791 264.888183 35.017791 301.289754 
C 35.017791 337.691324 42.188107 373.738935 56.118385 407.369601 
C 70.048663 441.000267 90.467994 471.559956 116.207792 497.299754 
C 141.947589 523.039551 172.507278 543.458882 206.137944 557.38916 
C 239.76861 571.319438 275.816221 578.489754 312.217791 578.489754 
C 348.619362 578.489754 384.666973 571.319438 418.297639 557.38916 
C 451.928305 543.458882 482.487994 523.039551 508.227791 497.299754 
C 533.967588 471.559956 554.38692 441.000267 568.317198 407.369601 
C 582.247476 373.738935 589.417791 337.691324 589.417791 301.289754 
M 312.217791 301.289754 
C 312.217791 301.289754 312.217791 301.289754 312.217791 301.289754 
C 312.217791 301.289754 312.217791 301.289754 312.217791 301.289754 
C 312.217791 301.289754 312.217791 301.289754 312.217791 301.289754 
C 312.217791 301.289754 312.217791 301.289754 312.217791 301.289754 
C 312.217791 301.289754 312.217791 301.289754 312.217791 301.289754 
C 312.217791 301.289754 312.217791 301.289754 312.217791 301.289754 
C 312.217791 301.289754 312.217791 301.289754 312.217791 301.289754 
C 312.217791 301.289754 312.217791 301.289754 312.217791 301.289754 
C 312.217791 301.289754 312.217791 301.289754 312.217791 301.289754 
C 312.217791 301.289754 312.217791 301.289754 312.217791 301.289754 
C 312.217791 301.289754 312.217791 301.289754 312.217791 301.289754 
C 312.217791 301.289754 312.217791 301.289754 312.217791 301.289754 
C 312.217791 301.289754 312.217791 301.289754 312.217791 301.289754 
C 312.217791 301.289754 312.217791 301.289754 312.217791 301.289754 
C 312.217791 301.289754 312.217791 301.289754 312.217791 301.289754 
C 312.217791 301.289754 312.217791 301.289754 312.217791 301.289754 
z
" style="fill: #ffffff"/>
   </g>
   <g id="patch_3">
    <path d="M 445.008211 301.289754 
L 340.145394 283.341774 
L 326.008575 271.09215 
L 307.49328 268.430053 
L 268.738176 251.111602 
L 280.364923 291.936908 
L 280.364923 310.6426 
L 290.477984 326.37883 
L 307.49328 334.149455 
L 326.008575 331.487357 
L 340.145394 319.237734 
z
" clip-path="url(#pb23e5cf867)" style="fill: #00ffff; opacity: 0.25; stroke: #00ffff; stroke-linejoin: miter"/>
   </g>
   <g id="patch_4">
    <path d="M 378.613001 301.289754 
L 368.072996 265.393793 
L 408.753275 89.906529 
L 302.768768 235.570352 
L 290.477984 276.200678 
L 248.512054 282.584062 
L 248.512054 319.995446 
L 268.738176 351.467905 
L 302.768768 367.009156 
L 339.799358 361.684961 
L 368.072996 337.185714 
z
" clip-path="url(#pb23e5cf867)" style="fill: #ff0000; opacity: 0.25; stroke: #ff0000; stroke-linejoin: miter"/>
   </g>
   <g id="patch_5">
    <path d="M 345.415396 301.289754 
L 396.000598 247.445813 
L 353.590142 210.696943 
L 298.044256 202.710651 
L 246.998368 226.022527 
L 152.953449 254.525523 
L 216.659186 329.348292 
L 225.25856 401.646057 
L 298.044256 399.868857 
L 367.380925 422.080168 
L 396.000598 355.133694 
z
" clip-path="url(#pb23e5cf867)" style="fill: #008000; opacity: 0.25; stroke: #008000; stroke-linejoin: miter"/>
   </g>
   <g id="patch_6">
    <path d="M 478.205815 301.289754 
L 451.855803 211.549853 
L 339.799358 240.894547 
L 293.319744 169.85095 
L 225.25856 200.933451 
L 216.659186 273.231216 
L 184.806317 338.701138 
L 246.998368 376.556981 
L 293.319744 432.728558 
L 353.590142 391.882564 
L 423.928201 373.081675 
z
" clip-path="url(#pb23e5cf867)" style="fill: #ffa500; opacity: 0.25; stroke: #ffa500; stroke-linejoin: miter"/>
   </g>
   <g id="patch_7">
    <path d="M 411.810606 301.289754 
L 423.928201 229.497833 
L 367.380925 180.49934 
L 288.595233 136.991249 
L 203.518752 175.844375 
L 184.806317 263.87837 
L 152.953449 348.053984 
L 203.518752 426.735132 
L 288.595233 465.588259 
L 381.171709 452.277771 
L 451.855803 391.029655 
z
" clip-path="url(#pb23e5cf867)" style="fill: #800080; opacity: 0.25; stroke: #800080; stroke-linejoin: miter"/>
   </g>
   <g id="patch_8">
    <path d="M 511.40342 301.289754 
L 535.63861 157.705912 
L 381.171709 150.301736 
L 279.146209 71.271847 
L 160.039137 125.666224 
L 89.247712 235.819831 
L 89.247712 366.759676 
L 181.778944 451.824208 
L 283.870721 498.44796 
L 394.962492 482.475375 
L 507.711008 426.925615 
z
" clip-path="url(#pb23e5cf867)" style="fill: #0000ff; opacity: 0.25; stroke: #0000ff; stroke-linejoin: miter"/>
   </g>
   <g id="patch_9">
    <path d="M 544.601025 301.289754 
L 507.711008 175.653893 
L 394.962492 120.104133 
L 283.870721 104.131548 
L 181.778944 150.7553 
L 121.10058 245.172677 
L 121.10058 357.40683 
L 160.039137 476.913284 
L 274.421697 564.167362 
L 422.544059 542.870582 
L 479.783405 408.977635 
z
" clip-path="url(#pb23e5cf867)" style="fill: #ffff00; opacity: 0.25; stroke: #ffff00; stroke-linejoin: miter"/>
   </g>
   <g id="patch_10">
    <path d="M 577.79863 301.289754 
L 479.783405 193.601873 
L 422.544059 59.708926 
L 274.421697 38.412146 
L 138.299329 100.577148 
L 57.394843 226.466985 
L 57.394843 376.112523 
L 138.299329 502.002359 
L 279.146209 531.307661 
L 408.753275 512.672978 
L 535.63861 444.873595 
z
" clip-path="url(#pb23e5cf867)" style="fill: #ff00ff; opacity: 0.25; stroke: #ff00ff; stroke-linejoin: miter"/>
   </g>
   <g id="matplotlib.axis_1">
    <g id="xtick_1">
     <g id="line2d_1">
      <path d="M 312.217791 301.289754 
L 589.417791 301.289754 
" clip-path="url(#pb23e5cf867)" style="fill: none; stroke: #b0b0b0; stroke-width: 0.8; stroke-linecap: square"/>
     </g>
     <g id="text_1">
      <!-- VisualNews(avg) -->
      <g transform="translate(546.929666 304.554129) scale(0.12 -0.12)">
       <defs>
        <path id="DejaVuSans-Bold-56" d="M 31 4666 
L 1241 4666 
L 2478 1222 
L 3713 4666 
L 4922 4666 
L 3194 0 
L 1759 0 
L 31 4666 
z
" transform="scale(0.015625)"/>
        <path id="DejaVuSans-Bold-69" d="M 538 3500 
L 1656 3500 
L 1656 0 
L 538 0 
L 538 3500 
z
M 538 4863 
L 1656 4863 
L 1656 3950 
L 538 3950 
L 538 4863 
z
" transform="scale(0.015625)"/>
        <path id="DejaVuSans-Bold-73" d="M 3272 3391 
L 3272 2541 
Q 2913 2691 2578 2766 
Q 2244 2841 1947 2841 
Q 1628 2841 1473 2761 
Q 1319 2681 1319 2516 
Q 1319 2381 1436 2309 
Q 1553 2238 1856 2203 
L 2053 2175 
Q 2913 2066 3209 1816 
Q 3506 1566 3506 1031 
Q 3506 472 3093 190 
Q 2681 -91 1863 -91 
Q 1516 -91 1145 -36 
Q 775 19 384 128 
L 384 978 
Q 719 816 1070 734 
Q 1422 653 1784 653 
Q 2113 653 2278 743 
Q 2444 834 2444 1013 
Q 2444 1163 2330 1236 
Q 2216 1309 1875 1350 
L 1678 1375 
Q 931 1469 631 1722 
Q 331 1975 331 2491 
Q 331 3047 712 3315 
Q 1094 3584 1881 3584 
Q 2191 3584 2531 3537 
Q 2872 3491 3272 3391 
z
" transform="scale(0.015625)"/>
        <path id="DejaVuSans-Bold-75" d="M 500 1363 
L 500 3500 
L 1625 3500 
L 1625 3150 
Q 1625 2866 1622 2436 
Q 1619 2006 1619 1863 
Q 1619 1441 1641 1255 
Q 1663 1069 1716 984 
Q 1784 875 1895 815 
Q 2006 756 2150 756 
Q 2500 756 2700 1025 
Q 2900 1294 2900 1772 
L 2900 3500 
L 4019 3500 
L 4019 0 
L 2900 0 
L 2900 506 
Q 2647 200 2364 54 
Q 2081 -91 1741 -91 
Q 1134 -91 817 281 
Q 500 653 500 1363 
z
" transform="scale(0.015625)"/>
        <path id="DejaVuSans-Bold-61" d="M 2106 1575 
Q 1756 1575 1579 1456 
Q 1403 1338 1403 1106 
Q 1403 894 1545 773 
Q 1688 653 1941 653 
Q 2256 653 2472 879 
Q 2688 1106 2688 1447 
L 2688 1575 
L 2106 1575 
z
M 3816 1997 
L 3816 0 
L 2688 0 
L 2688 519 
Q 2463 200 2181 54 
Q 1900 -91 1497 -91 
Q 953 -91 614 226 
Q 275 544 275 1050 
Q 275 1666 698 1953 
Q 1122 2241 2028 2241 
L 2688 2241 
L 2688 2328 
Q 2688 2594 2478 2717 
Q 2269 2841 1825 2841 
Q 1466 2841 1156 2769 
Q 847 2697 581 2553 
L 581 3406 
Q 941 3494 1303 3539 
Q 1666 3584 2028 3584 
Q 2975 3584 3395 3211 
Q 3816 2838 3816 1997 
z
" transform="scale(0.015625)"/>
        <path id="DejaVuSans-Bold-6c" d="M 538 4863 
L 1656 4863 
L 1656 0 
L 538 0 
L 538 4863 
z
" transform="scale(0.015625)"/>
        <path id="DejaVuSans-Bold-4e" d="M 588 4666 
L 1931 4666 
L 3628 1466 
L 3628 4666 
L 4769 4666 
L 4769 0 
L 3425 0 
L 1728 3200 
L 1728 0 
L 588 0 
L 588 4666 
z
" transform="scale(0.015625)"/>
        <path id="DejaVuSans-Bold-65" d="M 4031 1759 
L 4031 1441 
L 1416 1441 
Q 1456 1047 1700 850 
Q 1944 653 2381 653 
Q 2734 653 3104 758 
Q 3475 863 3866 1075 
L 3866 213 
Q 3469 63 3072 -14 
Q 2675 -91 2278 -91 
Q 1328 -91 801 392 
Q 275 875 275 1747 
Q 275 2603 792 3093 
Q 1309 3584 2216 3584 
Q 3041 3584 3536 3087 
Q 4031 2591 4031 1759 
z
M 2881 2131 
Q 2881 2450 2695 2645 
Q 2509 2841 2209 2841 
Q 1884 2841 1681 2658 
Q 1478 2475 1428 2131 
L 2881 2131 
z
" transform="scale(0.015625)"/>
        <path id="DejaVuSans-Bold-77" d="M 225 3500 
L 1313 3500 
L 1900 1088 
L 2491 3500 
L 3425 3500 
L 4013 1113 
L 4603 3500 
L 5691 3500 
L 4769 0 
L 3547 0 
L 2956 2406 
L 2369 0 
L 1147 0 
L 225 3500 
z
" transform="scale(0.015625)"/>
        <path id="DejaVuSans-Bold-28" d="M 2413 -844 
L 1484 -844 
Q 1006 -72 778 623 
Q 550 1319 550 2003 
Q 550 2688 779 3389 
Q 1009 4091 1484 4856 
L 2413 4856 
Q 2013 4116 1813 3408 
Q 1613 2700 1613 2009 
Q 1613 1319 1811 609 
Q 2009 -100 2413 -844 
z
" transform="scale(0.015625)"/>
        <path id="DejaVuSans-Bold-76" d="M 97 3500 
L 1216 3500 
L 2088 1081 
L 2956 3500 
L 4078 3500 
L 2700 0 
L 1472 0 
L 97 3500 
z
" transform="scale(0.015625)"/>
        <path id="DejaVuSans-Bold-67" d="M 2919 594 
Q 2688 288 2409 144 
Q 2131 0 1766 0 
Q 1125 0 706 504 
Q 288 1009 288 1791 
Q 288 2575 706 3076 
Q 1125 3578 1766 3578 
Q 2131 3578 2409 3434 
Q 2688 3291 2919 2981 
L 2919 3500 
L 4044 3500 
L 4044 353 
Q 4044 -491 3511 -936 
Q 2978 -1381 1966 -1381 
Q 1638 -1381 1331 -1331 
Q 1025 -1281 716 -1178 
L 716 -306 
Q 1009 -475 1290 -558 
Q 1572 -641 1856 -641 
Q 2406 -641 2662 -400 
Q 2919 -159 2919 353 
L 2919 594 
z
M 2181 2772 
Q 1834 2772 1640 2515 
Q 1447 2259 1447 1791 
Q 1447 1309 1634 1061 
Q 1822 813 2181 813 
Q 2531 813 2725 1069 
Q 2919 1325 2919 1791 
Q 2919 2259 2725 2515 
Q 2531 2772 2181 2772 
z
" transform="scale(0.015625)"/>
        <path id="DejaVuSans-Bold-29" d="M 513 -844 
Q 913 -100 1113 609 
Q 1313 1319 1313 2009 
Q 1313 2700 1113 3408 
Q 913 4116 513 4856 
L 1441 4856 
Q 1916 4091 2145 3389 
Q 2375 2688 2375 2003 
Q 2375 1319 2147 623 
Q 1919 -72 1441 -844 
L 513 -844 
z
" transform="scale(0.015625)"/>
       </defs>
       <use xlink:href="#DejaVuSans-Bold-56"/>
       <use xlink:href="#DejaVuSans-Bold-69" x="75.642578"/>
       <use xlink:href="#DejaVuSans-Bold-73" x="109.919922"/>
       <use xlink:href="#DejaVuSans-Bold-75" x="169.441406"/>
       <use xlink:href="#DejaVuSans-Bold-61" x="240.632812"/>
       <use xlink:href="#DejaVuSans-Bold-6c" x="308.113281"/>
       <use xlink:href="#DejaVuSans-Bold-4e" x="342.390625"/>
       <use xlink:href="#DejaVuSans-Bold-65" x="426.082031"/>
       <use xlink:href="#DejaVuSans-Bold-77" x="493.904297"/>
       <use xlink:href="#DejaVuSans-Bold-73" x="586.287109"/>
       <use xlink:href="#DejaVuSans-Bold-28" x="645.808594"/>
       <use xlink:href="#DejaVuSans-Bold-61" x="691.511719"/>
       <use xlink:href="#DejaVuSans-Bold-76" x="758.992188"/>
       <use xlink:href="#DejaVuSans-Bold-67" x="824.177734"/>
       <use xlink:href="#DejaVuSans-Bold-29" x="895.759766"/>
      </g>
     </g>
    </g>
    <g id="xtick_2">
     <g id="line2d_2">
      <path d="M 312.217791 301.289754 
L 545.413271 151.424119 
" clip-path="url(#pb23e5cf867)" style="fill: none; stroke: #b0b0b0; stroke-width: 0.8; stroke-linecap: square"/>
     </g>
     <g id="text_2">
      <!-- MSCOCO(avg) -->
      <g transform="translate(510.15082 147.11296) scale(0.12 -0.12)">
       <defs>
        <path id="DejaVuSans-Bold-4d" d="M 588 4666 
L 2119 4666 
L 3181 2169 
L 4250 4666 
L 5778 4666 
L 5778 0 
L 4641 0 
L 4641 3413 
L 3566 897 
L 2803 897 
L 1728 3413 
L 1728 0 
L 588 0 
L 588 4666 
z
" transform="scale(0.015625)"/>
        <path id="DejaVuSans-Bold-53" d="M 3834 4519 
L 3834 3531 
Q 3450 3703 3084 3790 
Q 2719 3878 2394 3878 
Q 1963 3878 1756 3759 
Q 1550 3641 1550 3391 
Q 1550 3203 1689 3098 
Q 1828 2994 2194 2919 
L 2706 2816 
Q 3484 2659 3812 2340 
Q 4141 2022 4141 1434 
Q 4141 663 3683 286 
Q 3225 -91 2284 -91 
Q 1841 -91 1394 -6 
Q 947 78 500 244 
L 500 1259 
Q 947 1022 1364 901 
Q 1781 781 2169 781 
Q 2563 781 2772 912 
Q 2981 1044 2981 1288 
Q 2981 1506 2839 1625 
Q 2697 1744 2272 1838 
L 1806 1941 
Q 1106 2091 782 2419 
Q 459 2747 459 3303 
Q 459 4000 909 4375 
Q 1359 4750 2203 4750 
Q 2588 4750 2994 4692 
Q 3400 4634 3834 4519 
z
" transform="scale(0.015625)"/>
        <path id="DejaVuSans-Bold-43" d="M 4288 256 
Q 3956 84 3597 -3 
Q 3238 -91 2847 -91 
Q 1681 -91 1000 561 
Q 319 1213 319 2328 
Q 319 3447 1000 4098 
Q 1681 4750 2847 4750 
Q 3238 4750 3597 4662 
Q 3956 4575 4288 4403 
L 4288 3438 
Q 3953 3666 3628 3772 
Q 3303 3878 2944 3878 
Q 2300 3878 1931 3465 
Q 1563 3053 1563 2328 
Q 1563 1606 1931 1193 
Q 2300 781 2944 781 
Q 3303 781 3628 887 
Q 3953 994 4288 1222 
L 4288 256 
z
" transform="scale(0.015625)"/>
        <path id="DejaVuSans-Bold-4f" d="M 2719 3878 
Q 2169 3878 1866 3472 
Q 1563 3066 1563 2328 
Q 1563 1594 1866 1187 
Q 2169 781 2719 781 
Q 3272 781 3575 1187 
Q 3878 1594 3878 2328 
Q 3878 3066 3575 3472 
Q 3272 3878 2719 3878 
z
M 2719 4750 
Q 3844 4750 4481 4106 
Q 5119 3463 5119 2328 
Q 5119 1197 4481 553 
Q 3844 -91 2719 -91 
Q 1597 -91 958 553 
Q 319 1197 319 2328 
Q 319 3463 958 4106 
Q 1597 4750 2719 4750 
z
" transform="scale(0.015625)"/>
       </defs>
       <use xlink:href="#DejaVuSans-Bold-4d"/>
       <use xlink:href="#DejaVuSans-Bold-53" x="99.511719"/>
       <use xlink:href="#DejaVuSans-Bold-43" x="171.533203"/>
       <use xlink:href="#DejaVuSans-Bold-4f" x="244.921875"/>
       <use xlink:href="#DejaVuSans-Bold-43" x="329.931641"/>
       <use xlink:href="#DejaVuSans-Bold-4f" x="403.320312"/>
       <use xlink:href="#DejaVuSans-Bold-28" x="488.330078"/>
       <use xlink:href="#DejaVuSans-Bold-61" x="534.033203"/>
       <use xlink:href="#DejaVuSans-Bold-76" x="601.513672"/>
       <use xlink:href="#DejaVuSans-Bold-67" x="666.699219"/>
       <use xlink:href="#DejaVuSans-Bold-29" x="738.28125"/>
      </g>
     </g>
    </g>
    <g id="xtick_3">
     <g id="line2d_3">
      <path d="M 312.217791 301.289754 
L 427.370833 49.139765 
" clip-path="url(#pb23e5cf867)" style="fill: none; stroke: #b0b0b0; stroke-width: 0.8; stroke-linecap: square"/>
     </g>
     <g id="text_3">
      <!-- Fashion200K(avg) -->
      <g transform="translate(372.186331 39.669292) scale(0.12 -0.12)">
       <defs>
        <path id="DejaVuSans-Bold-46" d="M 588 4666 
L 3834 4666 
L 3834 3756 
L 1791 3756 
L 1791 2888 
L 3713 2888 
L 3713 1978 
L 1791 1978 
L 1791 0 
L 588 0 
L 588 4666 
z
" transform="scale(0.015625)"/>
        <path id="DejaVuSans-Bold-68" d="M 4056 2131 
L 4056 0 
L 2931 0 
L 2931 347 
L 2931 1625 
Q 2931 2084 2911 2256 
Q 2891 2428 2841 2509 
Q 2775 2619 2662 2680 
Q 2550 2741 2406 2741 
Q 2056 2741 1856 2470 
Q 1656 2200 1656 1722 
L 1656 0 
L 538 0 
L 538 4863 
L 1656 4863 
L 1656 2988 
Q 1909 3294 2193 3439 
Q 2478 3584 2822 3584 
Q 3428 3584 3742 3212 
Q 4056 2841 4056 2131 
z
" transform="scale(0.015625)"/>
        <path id="DejaVuSans-Bold-6f" d="M 2203 2784 
Q 1831 2784 1636 2517 
Q 1441 2250 1441 1747 
Q 1441 1244 1636 976 
Q 1831 709 2203 709 
Q 2569 709 2762 976 
Q 2956 1244 2956 1747 
Q 2956 2250 2762 2517 
Q 2569 2784 2203 2784 
z
M 2203 3584 
Q 3106 3584 3614 3096 
Q 4122 2609 4122 1747 
Q 4122 884 3614 396 
Q 3106 -91 2203 -91 
Q 1297 -91 786 396 
Q 275 884 275 1747 
Q 275 2609 786 3096 
Q 1297 3584 2203 3584 
z
" transform="scale(0.015625)"/>
        <path id="DejaVuSans-Bold-6e" d="M 4056 2131 
L 4056 0 
L 2931 0 
L 2931 347 
L 2931 1631 
Q 2931 2084 2911 2256 
Q 2891 2428 2841 2509 
Q 2775 2619 2662 2680 
Q 2550 2741 2406 2741 
Q 2056 2741 1856 2470 
Q 1656 2200 1656 1722 
L 1656 0 
L 538 0 
L 538 3500 
L 1656 3500 
L 1656 2988 
Q 1909 3294 2193 3439 
Q 2478 3584 2822 3584 
Q 3428 3584 3742 3212 
Q 4056 2841 4056 2131 
z
" transform="scale(0.015625)"/>
        <path id="DejaVuSans-Bold-32" d="M 1844 884 
L 3897 884 
L 3897 0 
L 506 0 
L 506 884 
L 2209 2388 
Q 2438 2594 2547 2791 
Q 2656 2988 2656 3200 
Q 2656 3528 2436 3728 
Q 2216 3928 1850 3928 
Q 1569 3928 1234 3808 
Q 900 3688 519 3450 
L 519 4475 
Q 925 4609 1322 4679 
Q 1719 4750 2100 4750 
Q 2938 4750 3402 4381 
Q 3866 4013 3866 3353 
Q 3866 2972 3669 2642 
Q 3472 2313 2841 1759 
L 1844 884 
z
" transform="scale(0.015625)"/>
        <path id="DejaVuSans-Bold-30" d="M 2944 2338 
Q 2944 3213 2780 3570 
Q 2616 3928 2228 3928 
Q 1841 3928 1675 3570 
Q 1509 3213 1509 2338 
Q 1509 1453 1675 1090 
Q 1841 728 2228 728 
Q 2613 728 2778 1090 
Q 2944 1453 2944 2338 
z
M 4147 2328 
Q 4147 1169 3647 539 
Q 3147 -91 2228 -91 
Q 1306 -91 806 539 
Q 306 1169 306 2328 
Q 306 3491 806 4120 
Q 1306 4750 2228 4750 
Q 3147 4750 3647 4120 
Q 4147 3491 4147 2328 
z
" transform="scale(0.015625)"/>
        <path id="DejaVuSans-Bold-4b" d="M 588 4666 
L 1791 4666 
L 1791 2963 
L 3525 4666 
L 4922 4666 
L 2675 2456 
L 5153 0 
L 3647 0 
L 1791 1838 
L 1791 0 
L 588 0 
L 588 4666 
z
" transform="scale(0.015625)"/>
       </defs>
       <use xlink:href="#DejaVuSans-Bold-46"/>
       <use xlink:href="#DejaVuSans-Bold-61" x="62.435547"/>
       <use xlink:href="#DejaVuSans-Bold-73" x="129.916016"/>
       <use xlink:href="#DejaVuSans-Bold-68" x="189.4375"/>
       <use xlink:href="#DejaVuSans-Bold-69" x="260.628906"/>
       <use xlink:href="#DejaVuSans-Bold-6f" x="294.90625"/>
       <use xlink:href="#DejaVuSans-Bold-6e" x="363.607422"/>
       <use xlink:href="#DejaVuSans-Bold-32" x="434.798828"/>
       <use xlink:href="#DejaVuSans-Bold-30" x="504.378906"/>
       <use xlink:href="#DejaVuSans-Bold-30" x="573.958984"/>
       <use xlink:href="#DejaVuSans-Bold-4b" x="643.539062"/>
       <use xlink:href="#DejaVuSans-Bold-28" x="721.029297"/>
       <use xlink:href="#DejaVuSans-Bold-61" x="766.732422"/>
       <use xlink:href="#DejaVuSans-Bold-76" x="834.212891"/>
       <use xlink:href="#DejaVuSans-Bold-67" x="899.398438"/>
       <use xlink:href="#DejaVuSans-Bold-29" x="970.980469"/>
      </g>
     </g>
    </g>
    <g id="xtick_4">
     <g id="line2d_4">
      <path d="M 312.217791 301.289754 
L 272.768118 26.91125 
" clip-path="url(#pb23e5cf867)" style="fill: none; stroke: #b0b0b0; stroke-width: 0.8; stroke-linecap: square"/>
     </g>
     <g id="text_4">
      <!-- WebQA(avg) -->
      <g transform="translate(228.527273 16.318125) scale(0.12 -0.12)">
       <defs>
        <path id="DejaVuSans-Bold-57" d="M 191 4666 
L 1344 4666 
L 2150 1275 
L 2950 4666 
L 4109 4666 
L 4909 1275 
L 5716 4666 
L 6859 4666 
L 5759 0 
L 4372 0 
L 3525 3547 
L 2688 0 
L 1300 0 
L 191 4666 
z
" transform="scale(0.015625)"/>
        <path id="DejaVuSans-Bold-62" d="M 2400 722 
Q 2759 722 2948 984 
Q 3138 1247 3138 1747 
Q 3138 2247 2948 2509 
Q 2759 2772 2400 2772 
Q 2041 2772 1848 2508 
Q 1656 2244 1656 1747 
Q 1656 1250 1848 986 
Q 2041 722 2400 722 
z
M 1656 2988 
Q 1888 3294 2169 3439 
Q 2450 3584 2816 3584 
Q 3463 3584 3878 3070 
Q 4294 2556 4294 1747 
Q 4294 938 3878 423 
Q 3463 -91 2816 -91 
Q 2450 -91 2169 54 
Q 1888 200 1656 506 
L 1656 0 
L 538 0 
L 538 4863 
L 1656 4863 
L 1656 2988 
z
" transform="scale(0.015625)"/>
        <path id="DejaVuSans-Bold-51" d="M 2847 -84 
L 2753 -84 
Q 1600 -84 959 553 
Q 319 1191 319 2328 
Q 319 3463 958 4106 
Q 1597 4750 2719 4750 
Q 3853 4750 4486 4112 
Q 5119 3475 5119 2328 
Q 5119 1541 4783 972 
Q 4447 403 3816 116 
L 4756 -934 
L 3609 -934 
L 2847 -84 
z
M 2719 3878 
Q 2169 3878 1866 3472 
Q 1563 3066 1563 2328 
Q 1563 1578 1859 1179 
Q 2156 781 2719 781 
Q 3272 781 3575 1187 
Q 3878 1594 3878 2328 
Q 3878 3066 3575 3472 
Q 3272 3878 2719 3878 
z
" transform="scale(0.015625)"/>
        <path id="DejaVuSans-Bold-41" d="M 3419 850 
L 1538 850 
L 1241 0 
L 31 0 
L 1759 4666 
L 3194 4666 
L 4922 0 
L 3713 0 
L 3419 850 
z
M 1838 1716 
L 3116 1716 
L 2478 3572 
L 1838 1716 
z
" transform="scale(0.015625)"/>
       </defs>
       <use xlink:href="#DejaVuSans-Bold-57"/>
       <use xlink:href="#DejaVuSans-Bold-65" x="106.677734"/>
       <use xlink:href="#DejaVuSans-Bold-62" x="174.5"/>
       <use xlink:href="#DejaVuSans-Bold-51" x="246.082031"/>
       <use xlink:href="#DejaVuSans-Bold-41" x="331.091797"/>
       <use xlink:href="#DejaVuSans-Bold-28" x="408.484375"/>
       <use xlink:href="#DejaVuSans-Bold-61" x="454.1875"/>
       <use xlink:href="#DejaVuSans-Bold-76" x="521.667969"/>
       <use xlink:href="#DejaVuSans-Bold-67" x="586.853516"/>
       <use xlink:href="#DejaVuSans-Bold-29" x="658.435547"/>
      </g>
     </g>
    </g>
    <g id="xtick_5">
     <g id="line2d_5">
      <path d="M 312.217791 301.289754 
L 130.690396 91.795972 
" clip-path="url(#pb23e5cf867)" style="fill: none; stroke: #b0b0b0; stroke-width: 0.8; stroke-linecap: square"/>
     </g>
     <g id="text_5">
      <!-- EDIS -->
      <g transform="translate(105.889533 84.526728) scale(0.12 -0.12)">
       <defs>
        <path id="DejaVuSans-Bold-45" d="M 588 4666 
L 3834 4666 
L 3834 3756 
L 1791 3756 
L 1791 2888 
L 3713 2888 
L 3713 1978 
L 1791 1978 
L 1791 909 
L 3903 909 
L 3903 0 
L 588 0 
L 588 4666 
z
" transform="scale(0.015625)"/>
        <path id="DejaVuSans-Bold-44" d="M 1791 3756 
L 1791 909 
L 2222 909 
Q 2959 909 3348 1275 
Q 3738 1641 3738 2338 
Q 3738 3031 3350 3393 
Q 2963 3756 2222 3756 
L 1791 3756 
z
M 588 4666 
L 1856 4666 
Q 2919 4666 3439 4514 
Q 3959 4363 4331 4000 
Q 4659 3684 4818 3271 
Q 4978 2859 4978 2338 
Q 4978 1809 4818 1395 
Q 4659 981 4331 666 
Q 3956 303 3431 151 
Q 2906 0 1856 0 
L 588 0 
L 588 4666 
z
" transform="scale(0.015625)"/>
        <path id="DejaVuSans-Bold-49" d="M 588 4666 
L 1791 4666 
L 1791 0 
L 588 0 
L 588 4666 
z
" transform="scale(0.015625)"/>
       </defs>
       <use xlink:href="#DejaVuSans-Bold-45"/>
       <use xlink:href="#DejaVuSans-Bold-44" x="68.310547"/>
       <use xlink:href="#DejaVuSans-Bold-49" x="151.318359"/>
       <use xlink:href="#DejaVuSans-Bold-53" x="188.525391"/>
      </g>
     </g>
    </g>
    <g id="xtick_6">
     <g id="line2d_6">
      <path d="M 312.217791 301.289754 
L 46.246339 223.193489 
" clip-path="url(#pb23e5cf867)" style="fill: none; stroke: #b0b0b0; stroke-width: 0.8; stroke-linecap: square"/>
     </g>
     <g id="text_6">
      <!-- NIGHTS -->
      <g transform="translate(7.2 222.560483) scale(0.12 -0.12)">
       <defs>
        <path id="DejaVuSans-Bold-47" d="M 4781 347 
Q 4331 128 3847 18 
Q 3363 -91 2847 -91 
Q 1681 -91 1000 561 
Q 319 1213 319 2328 
Q 319 3456 1012 4103 
Q 1706 4750 2913 4750 
Q 3378 4750 3804 4662 
Q 4231 4575 4609 4403 
L 4609 3438 
Q 4219 3659 3833 3768 
Q 3447 3878 3059 3878 
Q 2341 3878 1952 3476 
Q 1563 3075 1563 2328 
Q 1563 1588 1938 1184 
Q 2313 781 3003 781 
Q 3191 781 3352 804 
Q 3513 828 3641 878 
L 3641 1784 
L 2906 1784 
L 2906 2591 
L 4781 2591 
L 4781 347 
z
" transform="scale(0.015625)"/>
        <path id="DejaVuSans-Bold-48" d="M 588 4666 
L 1791 4666 
L 1791 2888 
L 3566 2888 
L 3566 4666 
L 4769 4666 
L 4769 0 
L 3566 0 
L 3566 1978 
L 1791 1978 
L 1791 0 
L 588 0 
L 588 4666 
z
" transform="scale(0.015625)"/>
        <path id="DejaVuSans-Bold-54" d="M 31 4666 
L 4331 4666 
L 4331 3756 
L 2784 3756 
L 2784 0 
L 1581 0 
L 1581 3756 
L 31 3756 
L 31 4666 
z
" transform="scale(0.015625)"/>
       </defs>
       <use xlink:href="#DejaVuSans-Bold-4e"/>
       <use xlink:href="#DejaVuSans-Bold-49" x="83.691406"/>
       <use xlink:href="#DejaVuSans-Bold-47" x="120.898438"/>
       <use xlink:href="#DejaVuSans-Bold-48" x="202.978516"/>
       <use xlink:href="#DejaVuSans-Bold-54" x="286.669922"/>
       <use xlink:href="#DejaVuSans-Bold-53" x="354.882812"/>
      </g>
     </g>
    </g>
    <g id="xtick_7">
     <g id="line2d_7">
      <path d="M 312.217791 301.289754 
L 46.246339 379.386019 
" clip-path="url(#pb23e5cf867)" style="fill: none; stroke: #b0b0b0; stroke-width: 0.8; stroke-linecap: square"/>
     </g>
     <g id="text_7">
      <!-- OVEN -->
      <g transform="translate(14.106562 386.641524) scale(0.12 -0.12)">
       <use xlink:href="#DejaVuSans-Bold-4f"/>
       <use xlink:href="#DejaVuSans-Bold-56" x="82.384766"/>
       <use xlink:href="#DejaVuSans-Bold-45" x="159.777344"/>
       <use xlink:href="#DejaVuSans-Bold-4e" x="228.087891"/>
      </g>
     </g>
    </g>
    <g id="xtick_8">
     <g id="line2d_8">
      <path d="M 312.217791 301.289754 
L 130.690396 510.783536 
" clip-path="url(#pb23e5cf867)" style="fill: none; stroke: #b0b0b0; stroke-width: 0.8; stroke-linecap: square"/>
     </g>
     <g id="text_8">
      <!-- FashionIQ -->
      <g transform="translate(88.101408 524.67528) scale(0.12 -0.12)">
       <use xlink:href="#DejaVuSans-Bold-46"/>
       <use xlink:href="#DejaVuSans-Bold-61" x="62.435547"/>
       <use xlink:href="#DejaVuSans-Bold-73" x="129.916016"/>
       <use xlink:href="#DejaVuSans-Bold-68" x="189.4375"/>
       <use xlink:href="#DejaVuSans-Bold-69" x="260.628906"/>
       <use xlink:href="#DejaVuSans-Bold-6f" x="294.90625"/>
       <use xlink:href="#DejaVuSans-Bold-6e" x="363.607422"/>
       <use xlink:href="#DejaVuSans-Bold-49" x="434.798828"/>
       <use xlink:href="#DejaVuSans-Bold-51" x="472.005859"/>
      </g>
     </g>
    </g>
    <g id="xtick_9">
     <g id="line2d_9">
      <path d="M 312.217791 301.289754 
L 272.768118 575.668258 
" clip-path="url(#pb23e5cf867)" style="fill: none; stroke: #b0b0b0; stroke-width: 0.8; stroke-linecap: square"/>
     </g>
     <g id="text_9">
      <!-- InfoSeek(avg) -->
      <g transform="translate(223.350398 592.790133) scale(0.12 -0.12)">
       <defs>
        <path id="DejaVuSans-Bold-66" d="M 2841 4863 
L 2841 4128 
L 2222 4128 
Q 1984 4128 1890 4042 
Q 1797 3956 1797 3744 
L 1797 3500 
L 2753 3500 
L 2753 2700 
L 1797 2700 
L 1797 0 
L 678 0 
L 678 2700 
L 122 2700 
L 122 3500 
L 678 3500 
L 678 3744 
Q 678 4316 997 4589 
Q 1316 4863 1984 4863 
L 2841 4863 
z
" transform="scale(0.015625)"/>
        <path id="DejaVuSans-Bold-6b" d="M 538 4863 
L 1656 4863 
L 1656 2216 
L 2944 3500 
L 4244 3500 
L 2534 1894 
L 4378 0 
L 3022 0 
L 1656 1459 
L 1656 0 
L 538 0 
L 538 4863 
z
" transform="scale(0.015625)"/>
       </defs>
       <use xlink:href="#DejaVuSans-Bold-49"/>
       <use xlink:href="#DejaVuSans-Bold-6e" x="37.207031"/>
       <use xlink:href="#DejaVuSans-Bold-66" x="108.398438"/>
       <use xlink:href="#DejaVuSans-Bold-6f" x="151.904297"/>
       <use xlink:href="#DejaVuSans-Bold-53" x="220.605469"/>
       <use xlink:href="#DejaVuSans-Bold-65" x="292.626953"/>
       <use xlink:href="#DejaVuSans-Bold-65" x="360.449219"/>
       <use xlink:href="#DejaVuSans-Bold-6b" x="428.271484"/>
       <use xlink:href="#DejaVuSans-Bold-28" x="494.775391"/>
       <use xlink:href="#DejaVuSans-Bold-61" x="540.478516"/>
       <use xlink:href="#DejaVuSans-Bold-76" x="607.958984"/>
       <use xlink:href="#DejaVuSans-Bold-67" x="673.144531"/>
       <use xlink:href="#DejaVuSans-Bold-29" x="744.726562"/>
      </g>
     </g>
    </g>
    <g id="xtick_10">
     <g id="line2d_10">
      <path d="M 312.217791 301.289754 
L 427.370833 553.439743 
" clip-path="url(#pb23e5cf867)" style="fill: none; stroke: #b0b0b0; stroke-width: 0.8; stroke-linecap: square"/>
     </g>
     <g id="text_10">
      <!-- CIRR -->
      <g transform="translate(417.311018 569.485841) scale(0.12 -0.12)">
       <defs>
        <path id="DejaVuSans-Bold-52" d="M 2297 2597 
Q 2675 2597 2839 2737 
Q 3003 2878 3003 3200 
Q 3003 3519 2839 3656 
Q 2675 3794 2297 3794 
L 1791 3794 
L 1791 2597 
L 2297 2597 
z
M 1791 1766 
L 1791 0 
L 588 0 
L 588 4666 
L 2425 4666 
Q 3347 4666 3776 4356 
Q 4206 4047 4206 3378 
Q 4206 2916 3982 2619 
Q 3759 2322 3309 2181 
Q 3556 2125 3751 1926 
Q 3947 1728 4147 1325 
L 4800 0 
L 3519 0 
L 2950 1159 
Q 2778 1509 2601 1637 
Q 2425 1766 2131 1766 
L 1791 1766 
z
" transform="scale(0.015625)"/>
       </defs>
       <use xlink:href="#DejaVuSans-Bold-43"/>
       <use xlink:href="#DejaVuSans-Bold-49" x="73.388672"/>
       <use xlink:href="#DejaVuSans-Bold-52" x="110.595703"/>
       <use xlink:href="#DejaVuSans-Bold-52" x="187.597656"/>
      </g>
     </g>
    </g>
    <g id="xtick_11">
     <g id="line2d_11">
      <path d="M 312.217791 301.289754 
L 545.413271 451.155388 
" clip-path="url(#pb23e5cf867)" style="fill: none; stroke: #b0b0b0; stroke-width: 0.8; stroke-linecap: square"/>
     </g>
     <g id="text_11">
      <!-- OVEN -->
      <g transform="translate(538.483945 462.03561) scale(0.12 -0.12)">
       <use xlink:href="#DejaVuSans-Bold-4f"/>
       <use xlink:href="#DejaVuSans-Bold-56" x="82.384766"/>
       <use xlink:href="#DejaVuSans-Bold-45" x="159.777344"/>
       <use xlink:href="#DejaVuSans-Bold-4e" x="228.087891"/>
      </g>
     </g>
    </g>
   </g>
   <g id="matplotlib.axis_2">
    <g id="ytick_1">
     <g id="line2d_12">
      <path d="M 365.333959 301.289754 
C 365.333959 294.314603 363.960006 287.407276 361.290732 280.963077 
C 358.621457 274.518877 354.70877 268.663128 349.776594 263.730952 
C 344.844417 258.798775 338.988668 254.886089 332.544469 252.216814 
C 326.100269 249.547539 319.192943 248.173586 312.217791 248.173586 
C 305.24264 248.173586 298.335314 249.547539 291.891114 252.216814 
C 285.446915 254.886089 279.591166 258.798775 274.658989 263.730952 
C 269.726812 268.663128 265.814126 274.518877 263.144851 280.963077 
C 260.475576 287.407276 259.101624 294.314603 259.101624 301.289754 
C 259.101624 308.264905 260.475576 315.172232 263.144851 321.616431 
C 265.814126 328.060631 269.726812 333.916379 274.658989 338.848556 
C 279.591166 343.780733 285.446915 347.693419 291.891114 350.362694 
C 298.335314 353.031969 305.24264 354.405922 312.217791 354.405922 
C 319.192943 354.405922 326.100269 353.031969 332.544469 350.362694 
C 338.988668 347.693419 344.844417 343.780733 349.776594 338.848556 
C 354.70877 333.916379 358.621457 328.060631 361.290732 321.616431 
C 363.960006 315.172232 365.333959 308.264905 365.333959 301.289754 
" clip-path="url(#pb23e5cf867)" style="fill: none; stroke: #b0b0b0; stroke-width: 0.8; stroke-linecap: square"/>
     </g>
    </g>
    <g id="ytick_2">
     <g id="line2d_13">
      <path d="M 418.450127 301.289754 
C 418.450127 287.339451 415.702221 273.524798 410.363672 260.636399 
C 405.025122 247.748 397.19975 236.036503 387.335396 226.172149 
C 377.471043 216.307796 365.759545 208.482423 352.871146 203.143874 
C 339.982747 197.805324 326.168094 195.057419 312.217791 195.057419 
C 298.267489 195.057419 284.452836 197.805324 271.564437 203.143874 
C 258.676038 208.482423 246.96454 216.307796 237.100187 226.172149 
C 227.235833 236.036503 219.410461 247.748 214.071911 260.636399 
C 208.733361 273.524798 205.985456 287.339451 205.985456 301.289754 
C 205.985456 315.240056 208.733361 329.05471 214.071911 341.943109 
C 219.410461 354.831508 227.235833 366.543005 237.100187 376.407359 
C 246.96454 386.271712 258.676038 394.097085 271.564437 399.435634 
C 284.452836 404.774184 298.267489 407.522089 312.217791 407.522089 
C 326.168094 407.522089 339.982747 404.774184 352.871146 399.435634 
C 365.759545 394.097085 377.471043 386.271712 387.335396 376.407359 
C 397.19975 366.543005 405.025122 354.831508 410.363672 341.943109 
C 415.702221 329.05471 418.450127 315.240056 418.450127 301.289754 
" clip-path="url(#pb23e5cf867)" style="fill: none; stroke: #b0b0b0; stroke-width: 0.8; stroke-linecap: square"/>
     </g>
    </g>
    <g id="ytick_3">
     <g id="line2d_14">
      <path d="M 471.566294 301.289754 
C 471.566294 280.3643 467.444436 259.64232 459.436612 240.309722 
C 451.428787 220.977123 439.690729 203.409877 424.894198 188.613347 
C 410.097668 173.816817 392.530422 162.078758 373.197823 154.070933 
C 353.865225 146.063109 333.143245 141.941251 312.217791 141.941251 
C 291.292338 141.941251 270.570358 146.063109 251.237759 154.070933 
C 231.905161 162.078758 214.337915 173.816817 199.541384 188.613347 
C 184.744854 203.409877 173.006795 220.977123 164.998971 240.309722 
C 156.991147 259.64232 152.869288 280.3643 152.869288 301.289754 
C 152.869288 322.215208 156.991147 342.937188 164.998971 362.269786 
C 173.006795 381.602384 184.744854 399.169631 199.541384 413.966161 
C 214.337915 428.762691 231.905161 440.50075 251.237759 448.508574 
C 270.570358 456.516399 291.292338 460.638257 312.217791 460.638257 
C 333.143245 460.638257 353.865225 456.516399 373.197823 448.508574 
C 392.530422 440.50075 410.097668 428.762691 424.894198 413.966161 
C 439.690729 399.169631 451.428787 381.602384 459.436612 362.269786 
C 467.444436 342.937188 471.566294 322.215208 471.566294 301.289754 
" clip-path="url(#pb23e5cf867)" style="fill: none; stroke: #b0b0b0; stroke-width: 0.8; stroke-linecap: square"/>
     </g>
    </g>
    <g id="ytick_4">
     <g id="line2d_15">
      <path d="M 524.682462 301.289754 
C 524.682462 273.389149 519.186651 245.759842 508.509552 219.983044 
C 497.832453 194.206247 482.181708 170.783251 462.453001 151.054544 
C 442.724294 131.325838 419.301299 115.675093 393.524501 104.997993 
C 367.747703 94.320894 340.118396 88.825083 312.217791 88.825083 
C 284.317187 88.825083 256.68788 94.320894 230.911082 104.997993 
C 205.134284 115.675093 181.711289 131.325838 161.982582 151.054544 
C 142.253875 170.783251 126.60313 194.206247 115.926031 219.983044 
C 105.248932 245.759842 99.753121 273.389149 99.753121 301.289754 
C 99.753121 329.190359 105.248932 356.819665 115.926031 382.596463 
C 126.60313 408.373261 142.253875 431.796256 161.982582 451.524963 
C 181.711289 471.25367 205.134284 486.904415 230.911082 497.581514 
C 256.68788 508.258614 284.317187 513.754425 312.217791 513.754425 
C 340.118396 513.754425 367.747703 508.258614 393.524501 497.581514 
C 419.301299 486.904415 442.724294 471.25367 462.453001 451.524963 
C 482.181708 431.796256 497.832453 408.373261 508.509552 382.596463 
C 519.186651 356.819665 524.682462 329.190359 524.682462 301.289754 
" clip-path="url(#pb23e5cf867)" style="fill: none; stroke: #b0b0b0; stroke-width: 0.8; stroke-linecap: square"/>
     </g>
    </g>
    <g id="ytick_5">
     <g id="line2d_16">
      <path d="M 577.79863 301.289754 
C 577.79863 266.413998 570.928866 231.877364 557.582492 199.656367 
C 544.236118 167.43537 524.672687 138.156626 500.011803 113.495742 
C 475.350919 88.834858 446.072175 69.271427 413.851178 55.925053 
C 381.630181 42.578679 347.093548 35.708916 312.217791 35.708916 
C 277.342035 35.708916 242.805402 42.578679 210.584405 55.925053 
C 178.363407 69.271427 149.084663 88.834858 124.42378 113.495742 
C 99.762896 138.156626 80.199465 167.43537 66.853091 199.656367 
C 53.506717 231.877364 46.636953 266.413998 46.636953 301.289754 
C 46.636953 336.16551 53.506717 370.702143 66.853091 402.923141 
C 80.199465 435.144138 99.762896 464.422882 124.42378 489.083766 
C 149.084663 513.744649 178.363407 533.308081 210.584405 546.654455 
C 242.805402 560.000829 277.342035 566.870592 312.217791 566.870592 
C 347.093548 566.870592 381.630181 560.000829 413.851178 546.654455 
C 446.072175 533.308081 475.350919 513.744649 500.011803 489.083766 
C 524.672687 464.422882 544.236118 435.144138 557.582492 402.923141 
C 570.928866 370.702143 577.79863 336.16551 577.79863 301.289754 
" clip-path="url(#pb23e5cf867)" style="fill: none; stroke: #b0b0b0; stroke-width: 0.8; stroke-linecap: square"/>
     </g>
    </g>
   </g>
   <g id="line2d_17">
    <path d="M 445.008211 301.289754 
L 340.145394 283.341774 
L 326.008575 271.09215 
L 307.49328 268.430053 
L 268.738176 251.111602 
L 280.364923 291.936908 
L 280.364923 310.6426 
L 290.477984 326.37883 
L 307.49328 334.149455 
L 326.008575 331.487357 
L 340.145394 319.237734 
L 445.008211 301.289754 
" clip-path="url(#pb23e5cf867)" style="fill: none; stroke: #00ffff; stroke-width: 1.5; stroke-linecap: square"/>
   </g>
   <g id="line2d_18">
    <path d="M 378.613001 301.289754 
L 368.072996 265.393793 
L 408.753275 89.906529 
L 302.768768 235.570352 
L 290.477984 276.200678 
L 248.512054 282.584062 
L 248.512054 319.995446 
L 268.738176 351.467905 
L 302.768768 367.009156 
L 339.799358 361.684961 
L 368.072996 337.185714 
L 378.613001 301.289754 
" clip-path="url(#pb23e5cf867)" style="fill: none; stroke: #ff0000; stroke-width: 1.5; stroke-linecap: square"/>
   </g>
   <g id="line2d_19">
    <path d="M 345.415396 301.289754 
L 396.000598 247.445813 
L 353.590142 210.696943 
L 298.044256 202.710651 
L 246.998368 226.022527 
L 152.953449 254.525523 
L 216.659186 329.348292 
L 225.25856 401.646057 
L 298.044256 399.868857 
L 367.380925 422.080168 
L 396.000598 355.133694 
L 345.415396 301.289754 
" clip-path="url(#pb23e5cf867)" style="fill: none; stroke: #008000; stroke-width: 1.5; stroke-linecap: square"/>
   </g>
   <g id="line2d_20">
    <path d="M 478.205815 301.289754 
L 451.855803 211.549853 
L 339.799358 240.894547 
L 293.319744 169.85095 
L 225.25856 200.933451 
L 216.659186 273.231216 
L 184.806317 338.701138 
L 246.998368 376.556981 
L 293.319744 432.728558 
L 353.590142 391.882564 
L 423.928201 373.081675 
L 478.205815 301.289754 
" clip-path="url(#pb23e5cf867)" style="fill: none; stroke: #ffa500; stroke-width: 1.5; stroke-linecap: square"/>
   </g>
   <g id="line2d_21">
    <path d="M 411.810606 301.289754 
L 423.928201 229.497833 
L 367.380925 180.49934 
L 288.595233 136.991249 
L 203.518752 175.844375 
L 184.806317 263.87837 
L 152.953449 348.053984 
L 203.518752 426.735132 
L 288.595233 465.588259 
L 381.171709 452.277771 
L 451.855803 391.029655 
L 411.810606 301.289754 
" clip-path="url(#pb23e5cf867)" style="fill: none; stroke: #800080; stroke-width: 1.5; stroke-linecap: square"/>
   </g>
   <g id="line2d_22">
    <path d="M 511.40342 301.289754 
L 535.63861 157.705912 
L 381.171709 150.301736 
L 279.146209 71.271847 
L 160.039137 125.666224 
L 89.247712 235.819831 
L 89.247712 366.759676 
L 181.778944 451.824208 
L 283.870721 498.44796 
L 394.962492 482.475375 
L 507.711008 426.925615 
L 511.40342 301.289754 
" clip-path="url(#pb23e5cf867)" style="fill: none; stroke: #0000ff; stroke-width: 1.5; stroke-linecap: square"/>
   </g>
   <g id="line2d_23">
    <path d="M 544.601025 301.289754 
L 507.711008 175.653893 
L 394.962492 120.104133 
L 283.870721 104.131548 
L 181.778944 150.7553 
L 121.10058 245.172677 
L 121.10058 357.40683 
L 160.039137 476.913284 
L 274.421697 564.167362 
L 422.544059 542.870582 
L 479.783405 408.977635 
L 544.601025 301.289754 
" clip-path="url(#pb23e5cf867)" style="fill: none; stroke: #ffff00; stroke-width: 1.5; stroke-linecap: square"/>
   </g>
   <g id="line2d_24">
    <path d="M 577.79863 301.289754 
L 479.783405 193.601873 
L 422.544059 59.708926 
L 274.421697 38.412146 
L 138.299329 100.577148 
L 57.394843 226.466985 
L 57.394843 376.112523 
L 138.299329 502.002359 
L 279.146209 531.307661 
L 408.753275 512.672978 
L 535.63861 444.873595 
L 577.79863 301.289754 
" clip-path="url(#pb23e5cf867)" style="fill: none; stroke: #ff00ff; stroke-width: 1.5; stroke-linecap: square"/>
   </g>
   <g id="patch_11">
    <path d="M 589.417791 301.289754 
C 589.417791 264.888183 582.247476 228.840572 568.317198 195.209906 
C 554.38692 161.579241 533.967588 131.019551 508.227791 105.279754 
C 482.487994 79.539957 451.928305 59.120625 418.297639 45.190347 
C 384.666973 31.26007 348.619362 24.089754 312.217791 24.089754 
C 275.816221 24.089754 239.76861 31.26007 206.137944 45.190347 
C 172.507278 59.120625 141.947589 79.539957 116.207792 105.279754 
C 90.467994 131.019551 70.048663 161.579241 56.118385 195.209906 
C 42.188107 228.840572 35.017791 264.888183 35.017791 301.289754 
C 35.017791 337.691324 42.188107 373.738935 56.118385 407.369601 
C 70.048663 441.000267 90.467994 471.559956 116.207792 497.299754 
C 141.947589 523.039551 172.507278 543.458882 206.137944 557.38916 
C 239.76861 571.319438 275.816221 578.489754 312.217791 578.489754 
C 348.619362 578.489754 384.666973 571.319438 418.297639 557.38916 
C 451.928305 543.458882 482.487994 523.039551 508.227791 497.299754 
C 533.967588 471.559956 554.38692 441.000267 568.317198 407.369601 
C 582.247476 373.738935 589.417791 337.691324 589.417791 301.289754 
" style="fill: none; stroke: #000000; stroke-width: 0.8; stroke-linejoin: miter; stroke-linecap: square"/>
   </g>
   <g id="text_12">
    <!-- 42.3 -->
    <g style="fill: #00ffff" transform="translate(441.413577 303.497254) scale(0.08 -0.08)">
     <defs>
      <path id="DejaVuSans-34" d="M 2419 4116 
L 825 1625 
L 2419 1625 
L 2419 4116 
z
M 2253 4666 
L 3047 4666 
L 3047 1625 
L 3713 1625 
L 3713 1100 
L 3047 1100 
L 3047 0 
L 2419 0 
L 2419 1100 
L 313 1100 
L 313 1709 
L 2253 4666 
z
" transform="scale(0.015625)"/>
      <path id="DejaVuSans-32" d="M 1228 531 
L 3431 531 
L 3431 0 
L 469 0 
L 469 531 
Q 828 903 1448 1529 
Q 2069 2156 2228 2338 
Q 2531 2678 2651 2914 
Q 2772 3150 2772 3378 
Q 2772 3750 2511 3984 
Q 2250 4219 1831 4219 
Q 1534 4219 1204 4116 
Q 875 4013 500 3803 
L 500 4441 
Q 881 4594 1212 4672 
Q 1544 4750 1819 4750 
Q 2544 4750 2975 4387 
Q 3406 4025 3406 3419 
Q 3406 3131 3298 2873 
Q 3191 2616 2906 2266 
Q 2828 2175 2409 1742 
Q 1991 1309 1228 531 
z
" transform="scale(0.015625)"/>
      <path id="DejaVuSans-2e" d="M 684 794 
L 1344 794 
L 1344 0 
L 684 0 
L 684 794 
z
" transform="scale(0.015625)"/>
      <path id="DejaVuSans-33" d="M 2597 2516 
Q 3050 2419 3304 2112 
Q 3559 1806 3559 1356 
Q 3559 666 3084 287 
Q 2609 -91 1734 -91 
Q 1441 -91 1130 -33 
Q 819 25 488 141 
L 488 750 
Q 750 597 1062 519 
Q 1375 441 1716 441 
Q 2309 441 2620 675 
Q 2931 909 2931 1356 
Q 2931 1769 2642 2001 
Q 2353 2234 1838 2234 
L 1294 2234 
L 1294 2753 
L 1863 2753 
Q 2328 2753 2575 2939 
Q 2822 3125 2822 3475 
Q 2822 3834 2567 4026 
Q 2313 4219 1838 4219 
Q 1578 4219 1281 4162 
Q 984 4106 628 3988 
L 628 4550 
Q 988 4650 1302 4700 
Q 1616 4750 1894 4750 
Q 2613 4750 3031 4423 
Q 3450 4097 3450 3541 
Q 3450 3153 3228 2886 
Q 3006 2619 2597 2516 
z
" transform="scale(0.015625)"/>
     </defs>
     <use xlink:href="#DejaVuSans-34"/>
     <use xlink:href="#DejaVuSans-32" x="63.623047"/>
     <use xlink:href="#DejaVuSans-2e" x="127.246094"/>
     <use xlink:href="#DejaVuSans-33" x="159.033203"/>
    </g>
   </g>
   <g id="text_13">
    <!-- 70.0 -->
    <g style="fill: #00ffff" transform="translate(335.70756 282.677597) scale(0.08 -0.08)">
     <defs>
      <path id="DejaVuSans-37" d="M 525 4666 
L 3525 4666 
L 3525 4397 
L 1831 0 
L 1172 0 
L 2766 4134 
L 525 4134 
L 525 4666 
z
" transform="scale(0.015625)"/>
      <path id="DejaVuSans-30" d="M 2034 4250 
Q 1547 4250 1301 3770 
Q 1056 3291 1056 2328 
Q 1056 1369 1301 889 
Q 1547 409 2034 409 
Q 2525 409 2770 889 
Q 3016 1369 3016 2328 
Q 3016 3291 2770 3770 
Q 2525 4250 2034 4250 
z
M 2034 4750 
Q 2819 4750 3233 4129 
Q 3647 3509 3647 2328 
Q 3647 1150 3233 529 
Q 2819 -91 2034 -91 
Q 1250 -91 836 529 
Q 422 1150 422 2328 
Q 422 3509 836 4129 
Q 1250 4750 2034 4750 
z
" transform="scale(0.015625)"/>
     </defs>
     <use xlink:href="#DejaVuSans-37"/>
     <use xlink:href="#DejaVuSans-30" x="63.623047"/>
     <use xlink:href="#DejaVuSans-2e" x="127.246094"/>
     <use xlink:href="#DejaVuSans-30" x="159.033203"/>
    </g>
   </g>
   <g id="text_14">
    <!-- 7.2 -->
    <g style="fill: #00ffff" transform="translate(321.85385 268.468034) scale(0.08 -0.08)">
     <use xlink:href="#DejaVuSans-37"/>
     <use xlink:href="#DejaVuSans-2e" x="63.623047"/>
     <use xlink:href="#DejaVuSans-32" x="95.410156"/>
    </g>
   </g>
   <g id="text_15">
    <!-- 40.7 -->
    <g style="fill: #00ffff" transform="translate(297.831108 265.380001) scale(0.08 -0.08)">
     <use xlink:href="#DejaVuSans-34"/>
     <use xlink:href="#DejaVuSans-30" x="63.623047"/>
     <use xlink:href="#DejaVuSans-2e" x="127.246094"/>
     <use xlink:href="#DejaVuSans-37" x="159.033203"/>
    </g>
   </g>
   <g id="text_16">
    <!-- 43.3 -->
    <g style="fill: #00ffff" transform="translate(256.353556 249.30485) scale(0.08 -0.08)">
     <use xlink:href="#DejaVuSans-34"/>
     <use xlink:href="#DejaVuSans-33" x="63.623047"/>
     <use xlink:href="#DejaVuSans-2e" x="127.246094"/>
     <use xlink:href="#DejaVuSans-33" x="159.033203"/>
    </g>
   </g>
   <g id="text_17">
    <!-- 26.1 -->
    <g style="fill: #00ffff" transform="translate(266.362214 292.647952) scale(0.08 -0.08)">
     <defs>
      <path id="DejaVuSans-36" d="M 2113 2584 
Q 1688 2584 1439 2293 
Q 1191 2003 1191 1497 
Q 1191 994 1439 701 
Q 1688 409 2113 409 
Q 2538 409 2786 701 
Q 3034 994 3034 1497 
Q 3034 2003 2786 2293 
Q 2538 2584 2113 2584 
z
M 3366 4563 
L 3366 3988 
Q 3128 4100 2886 4159 
Q 2644 4219 2406 4219 
Q 1781 4219 1451 3797 
Q 1122 3375 1075 2522 
Q 1259 2794 1537 2939 
Q 1816 3084 2150 3084 
Q 2853 3084 3261 2657 
Q 3669 2231 3669 1497 
Q 3669 778 3244 343 
Q 2819 -91 2113 -91 
Q 1303 -91 875 529 
Q 447 1150 447 2328 
Q 447 3434 972 4092 
Q 1497 4750 2381 4750 
Q 2619 4750 2861 4703 
Q 3103 4656 3366 4563 
z
" transform="scale(0.015625)"/>
      <path id="DejaVuSans-31" d="M 794 531 
L 1825 531 
L 1825 4091 
L 703 3866 
L 703 4441 
L 1819 4666 
L 2450 4666 
L 2450 531 
L 3481 531 
L 3481 0 
L 794 0 
L 794 531 
z
" transform="scale(0.015625)"/>
     </defs>
     <use xlink:href="#DejaVuSans-32"/>
     <use xlink:href="#DejaVuSans-36" x="63.623047"/>
     <use xlink:href="#DejaVuSans-2e" x="127.246094"/>
     <use xlink:href="#DejaVuSans-31" x="159.033203"/>
    </g>
   </g>
   <g id="text_18">
    <!-- 24.2 -->
    <g style="fill: #00ffff" transform="translate(266.362214 314.346555) scale(0.08 -0.08)">
     <use xlink:href="#DejaVuSans-32"/>
     <use xlink:href="#DejaVuSans-34" x="63.623047"/>
     <use xlink:href="#DejaVuSans-2e" x="127.246094"/>
     <use xlink:href="#DejaVuSans-32" x="159.033203"/>
    </g>
   </g>
   <g id="text_19">
    <!-- 7.0 -->
    <g style="fill: #00ffff" transform="translate(280.638364 332.600582) scale(0.08 -0.08)">
     <use xlink:href="#DejaVuSans-37"/>
     <use xlink:href="#DejaVuSans-2e" x="63.623047"/>
     <use xlink:href="#DejaVuSans-30" x="95.410156"/>
    </g>
   </g>
   <g id="text_20">
    <!-- 23.4 -->
    <g style="fill: #00ffff" transform="translate(297.831108 341.614507) scale(0.08 -0.08)">
     <use xlink:href="#DejaVuSans-32"/>
     <use xlink:href="#DejaVuSans-33" x="63.623047"/>
     <use xlink:href="#DejaVuSans-2e" x="127.246094"/>
     <use xlink:href="#DejaVuSans-34" x="159.033203"/>
    </g>
   </g>
   <g id="text_21">
    <!-- 13.2 -->
    <g style="fill: #00ffff" transform="translate(319.30885 338.526474) scale(0.08 -0.08)">
     <use xlink:href="#DejaVuSans-31"/>
     <use xlink:href="#DejaVuSans-33" x="63.623047"/>
     <use xlink:href="#DejaVuSans-2e" x="127.246094"/>
     <use xlink:href="#DejaVuSans-32" x="159.033203"/>
    </g>
   </g>
   <g id="text_22">
    <!-- 38.8 -->
    <g style="fill: #00ffff" transform="translate(335.70756 324.316911) scale(0.08 -0.08)">
     <defs>
      <path id="DejaVuSans-38" d="M 2034 2216 
Q 1584 2216 1326 1975 
Q 1069 1734 1069 1313 
Q 1069 891 1326 650 
Q 1584 409 2034 409 
Q 2484 409 2743 651 
Q 3003 894 3003 1313 
Q 3003 1734 2745 1975 
Q 2488 2216 2034 2216 
z
M 1403 2484 
Q 997 2584 770 2862 
Q 544 3141 544 3541 
Q 544 4100 942 4425 
Q 1341 4750 2034 4750 
Q 2731 4750 3128 4425 
Q 3525 4100 3525 3541 
Q 3525 3141 3298 2862 
Q 3072 2584 2669 2484 
Q 3125 2378 3379 2068 
Q 3634 1759 3634 1313 
Q 3634 634 3220 271 
Q 2806 -91 2034 -91 
Q 1263 -91 848 271 
Q 434 634 434 1313 
Q 434 1759 690 2068 
Q 947 2378 1403 2484 
z
M 1172 3481 
Q 1172 3119 1398 2916 
Q 1625 2713 2034 2713 
Q 2441 2713 2670 2916 
Q 2900 3119 2900 3481 
Q 2900 3844 2670 4047 
Q 2441 4250 2034 4250 
Q 1625 4250 1398 4047 
Q 1172 3844 1172 3481 
z
" transform="scale(0.015625)"/>
     </defs>
     <use xlink:href="#DejaVuSans-33"/>
     <use xlink:href="#DejaVuSans-38" x="63.623047"/>
     <use xlink:href="#DejaVuSans-2e" x="127.246094"/>
     <use xlink:href="#DejaVuSans-38" x="159.033203"/>
    </g>
   </g>
   <g id="text_23">
    <!-- 30.5 -->
    <g style="fill: #ff0000" transform="translate(375.018368 303.497254) scale(0.08 -0.08)">
     <defs>
      <path id="DejaVuSans-35" d="M 691 4666 
L 3169 4666 
L 3169 4134 
L 1269 4134 
L 1269 2991 
Q 1406 3038 1543 3061 
Q 1681 3084 1819 3084 
Q 2600 3084 3056 2656 
Q 3513 2228 3513 1497 
Q 3513 744 3044 326 
Q 2575 -91 1722 -91 
Q 1428 -91 1123 -41 
Q 819 9 494 109 
L 494 744 
Q 775 591 1075 516 
Q 1375 441 1709 441 
Q 2250 441 2565 725 
Q 2881 1009 2881 1497 
Q 2881 1984 2565 2268 
Q 2250 2553 1709 2553 
Q 1456 2553 1204 2497 
Q 953 2441 691 2322 
L 691 4666 
z
" transform="scale(0.015625)"/>
     </defs>
     <use xlink:href="#DejaVuSans-33"/>
     <use xlink:href="#DejaVuSans-30" x="63.623047"/>
     <use xlink:href="#DejaVuSans-2e" x="127.246094"/>
     <use xlink:href="#DejaVuSans-35" x="159.033203"/>
    </g>
   </g>
   <g id="text_24">
    <!-- 82.0 -->
    <g style="fill: #ff0000" transform="translate(363.635162 264.729617) scale(0.08 -0.08)">
     <use xlink:href="#DejaVuSans-38"/>
     <use xlink:href="#DejaVuSans-32" x="63.623047"/>
     <use xlink:href="#DejaVuSans-2e" x="127.246094"/>
     <use xlink:href="#DejaVuSans-30" x="159.033203"/>
    </g>
   </g>
   <g id="text_25">
    <!-- 35.4 -->
    <g style="fill: #ff0000" transform="translate(402.053551 87.282413) scale(0.08 -0.08)">
     <use xlink:href="#DejaVuSans-33"/>
     <use xlink:href="#DejaVuSans-35" x="63.623047"/>
     <use xlink:href="#DejaVuSans-2e" x="127.246094"/>
     <use xlink:href="#DejaVuSans-34" x="159.033203"/>
    </g>
   </g>
   <g id="text_26">
    <!-- 41.6 -->
    <g style="fill: #ff0000" transform="translate(293.106596 232.5203) scale(0.08 -0.08)">
     <use xlink:href="#DejaVuSans-34"/>
     <use xlink:href="#DejaVuSans-31" x="63.623047"/>
     <use xlink:href="#DejaVuSans-2e" x="127.246094"/>
     <use xlink:href="#DejaVuSans-36" x="159.033203"/>
    </g>
   </g>
   <g id="text_27">
    <!-- 27.0 -->
    <g style="fill: #ff0000" transform="translate(278.093364 274.393926) scale(0.08 -0.08)">
     <use xlink:href="#DejaVuSans-32"/>
     <use xlink:href="#DejaVuSans-37" x="63.623047"/>
     <use xlink:href="#DejaVuSans-2e" x="127.246094"/>
     <use xlink:href="#DejaVuSans-30" x="159.033203"/>
    </g>
   </g>
   <g id="text_28">
    <!-- 28.9 -->
    <g style="fill: #ff0000" transform="translate(234.509345 283.295106) scale(0.08 -0.08)">
     <defs>
      <path id="DejaVuSans-39" d="M 703 97 
L 703 672 
Q 941 559 1184 500 
Q 1428 441 1663 441 
Q 2288 441 2617 861 
Q 2947 1281 2994 2138 
Q 2813 1869 2534 1725 
Q 2256 1581 1919 1581 
Q 1219 1581 811 2004 
Q 403 2428 403 3163 
Q 403 3881 828 4315 
Q 1253 4750 1959 4750 
Q 2769 4750 3195 4129 
Q 3622 3509 3622 2328 
Q 3622 1225 3098 567 
Q 2575 -91 1691 -91 
Q 1453 -91 1209 -44 
Q 966 3 703 97 
z
M 1959 2075 
Q 2384 2075 2632 2365 
Q 2881 2656 2881 3163 
Q 2881 3666 2632 3958 
Q 2384 4250 1959 4250 
Q 1534 4250 1286 3958 
Q 1038 3666 1038 3163 
Q 1038 2656 1286 2365 
Q 1534 2075 1959 2075 
z
" transform="scale(0.015625)"/>
     </defs>
     <use xlink:href="#DejaVuSans-32"/>
     <use xlink:href="#DejaVuSans-38" x="63.623047"/>
     <use xlink:href="#DejaVuSans-2e" x="127.246094"/>
     <use xlink:href="#DejaVuSans-39" x="159.033203"/>
    </g>
   </g>
   <g id="text_29">
    <!-- 29.7 -->
    <g style="fill: #ff0000" transform="translate(234.509345 323.699401) scale(0.08 -0.08)">
     <use xlink:href="#DejaVuSans-32"/>
     <use xlink:href="#DejaVuSans-39" x="63.623047"/>
     <use xlink:href="#DejaVuSans-2e" x="127.246094"/>
     <use xlink:href="#DejaVuSans-37" x="159.033203"/>
    </g>
   </g>
   <g id="text_30">
    <!-- 14.4 -->
    <g style="fill: #ff0000" transform="translate(256.353556 357.689657) scale(0.08 -0.08)">
     <use xlink:href="#DejaVuSans-31"/>
     <use xlink:href="#DejaVuSans-34" x="63.623047"/>
     <use xlink:href="#DejaVuSans-2e" x="127.246094"/>
     <use xlink:href="#DejaVuSans-34" x="159.033203"/>
    </g>
   </g>
   <g id="text_31">
    <!-- 26.2 -->
    <g style="fill: #ff0000" transform="translate(293.106596 374.474208) scale(0.08 -0.08)">
     <use xlink:href="#DejaVuSans-32"/>
     <use xlink:href="#DejaVuSans-36" x="63.623047"/>
     <use xlink:href="#DejaVuSans-2e" x="127.246094"/>
     <use xlink:href="#DejaVuSans-32" x="159.033203"/>
    </g>
   </g>
   <g id="text_32">
    <!-- 22.7 -->
    <g style="fill: #ff0000" transform="translate(333.099634 368.724077) scale(0.08 -0.08)">
     <use xlink:href="#DejaVuSans-32"/>
     <use xlink:href="#DejaVuSans-32" x="63.623047"/>
     <use xlink:href="#DejaVuSans-2e" x="127.246094"/>
     <use xlink:href="#DejaVuSans-37" x="159.033203"/>
    </g>
   </g>
   <g id="text_33">
    <!-- 41.7 -->
    <g style="fill: #ff0000" transform="translate(363.635162 342.264891) scale(0.08 -0.08)">
     <use xlink:href="#DejaVuSans-34"/>
     <use xlink:href="#DejaVuSans-31" x="63.623047"/>
     <use xlink:href="#DejaVuSans-2e" x="127.246094"/>
     <use xlink:href="#DejaVuSans-37" x="159.033203"/>
    </g>
   </g>
   <g id="text_34">
    <!-- 23.1 -->
    <g style="fill: #008000" transform="translate(341.820763 303.497254) scale(0.08 -0.08)">
     <use xlink:href="#DejaVuSans-32"/>
     <use xlink:href="#DejaVuSans-33" x="63.623047"/>
     <use xlink:href="#DejaVuSans-2e" x="127.246094"/>
     <use xlink:href="#DejaVuSans-31" x="159.033203"/>
    </g>
   </g>
   <g id="text_35">
    <!-- 84.8 -->
    <g style="fill: #008000" transform="translate(391.562765 246.781636) scale(0.08 -0.08)">
     <use xlink:href="#DejaVuSans-38"/>
     <use xlink:href="#DejaVuSans-34" x="63.623047"/>
     <use xlink:href="#DejaVuSans-2e" x="127.246094"/>
     <use xlink:href="#DejaVuSans-38" x="159.033203"/>
    </g>
   </g>
   <g id="text_36">
    <!-- 27.5 -->
    <g style="fill: #008000" transform="translate(346.890417 208.072827) scale(0.08 -0.08)">
     <use xlink:href="#DejaVuSans-32"/>
     <use xlink:href="#DejaVuSans-37" x="63.623047"/>
     <use xlink:href="#DejaVuSans-2e" x="127.246094"/>
     <use xlink:href="#DejaVuSans-35" x="159.033203"/>
    </g>
   </g>
   <g id="text_37">
    <!-- 79.9 -->
    <g style="fill: #008000" transform="translate(288.382084 199.660599) scale(0.08 -0.08)">
     <use xlink:href="#DejaVuSans-37"/>
     <use xlink:href="#DejaVuSans-39" x="63.623047"/>
     <use xlink:href="#DejaVuSans-2e" x="127.246094"/>
     <use xlink:href="#DejaVuSans-39" x="159.033203"/>
    </g>
   </g>
   <g id="text_38">
    <!-- 50.9 -->
    <g style="fill: #008000" transform="translate(234.613749 224.215775) scale(0.08 -0.08)">
     <use xlink:href="#DejaVuSans-35"/>
     <use xlink:href="#DejaVuSans-30" x="63.623047"/>
     <use xlink:href="#DejaVuSans-2e" x="127.246094"/>
     <use xlink:href="#DejaVuSans-39" x="159.033203"/>
    </g>
   </g>
   <g id="text_39">
    <!-- 33.0 -->
    <g style="fill: #008000" transform="translate(138.95074 255.236568) scale(0.08 -0.08)">
     <use xlink:href="#DejaVuSans-33"/>
     <use xlink:href="#DejaVuSans-33" x="63.623047"/>
     <use xlink:href="#DejaVuSans-2e" x="127.246094"/>
     <use xlink:href="#DejaVuSans-30" x="159.033203"/>
    </g>
   </g>
   <g id="text_40">
    <!-- 41.0 -->
    <g style="fill: #008000" transform="translate(202.656477 333.052247) scale(0.08 -0.08)">
     <use xlink:href="#DejaVuSans-34"/>
     <use xlink:href="#DejaVuSans-31" x="63.623047"/>
     <use xlink:href="#DejaVuSans-2e" x="127.246094"/>
     <use xlink:href="#DejaVuSans-30" x="159.033203"/>
    </g>
   </g>
   <g id="text_41">
    <!-- 29.2 -->
    <g style="fill: #008000" transform="translate(212.873941 407.867809) scale(0.08 -0.08)">
     <use xlink:href="#DejaVuSans-32"/>
     <use xlink:href="#DejaVuSans-39" x="63.623047"/>
     <use xlink:href="#DejaVuSans-2e" x="127.246094"/>
     <use xlink:href="#DejaVuSans-32" x="159.033203"/>
    </g>
   </g>
   <g id="text_42">
    <!-- 27.7 -->
    <g style="fill: #008000" transform="translate(288.382084 407.333909) scale(0.08 -0.08)">
     <use xlink:href="#DejaVuSans-32"/>
     <use xlink:href="#DejaVuSans-37" x="63.623047"/>
     <use xlink:href="#DejaVuSans-2e" x="127.246094"/>
     <use xlink:href="#DejaVuSans-37" x="159.033203"/>
    </g>
   </g>
   <g id="text_43">
    <!-- 52.2 -->
    <g style="fill: #008000" transform="translate(360.6812 429.119284) scale(0.08 -0.08)">
     <use xlink:href="#DejaVuSans-35"/>
     <use xlink:href="#DejaVuSans-32" x="63.623047"/>
     <use xlink:href="#DejaVuSans-2e" x="127.246094"/>
     <use xlink:href="#DejaVuSans-32" x="159.033203"/>
    </g>
   </g>
   <g id="text_44">
    <!-- 55.8 -->
    <g style="fill: #008000" transform="translate(391.562765 360.212871) scale(0.08 -0.08)">
     <use xlink:href="#DejaVuSans-35"/>
     <use xlink:href="#DejaVuSans-35" x="63.623047"/>
     <use xlink:href="#DejaVuSans-2e" x="127.246094"/>
     <use xlink:href="#DejaVuSans-38" x="159.033203"/>
    </g>
   </g>
   <g id="text_45">
    <!-- 42.9 -->
    <g style="fill: #ffa500" transform="translate(474.611182 303.497254) scale(0.08 -0.08)">
     <use xlink:href="#DejaVuSans-34"/>
     <use xlink:href="#DejaVuSans-32" x="63.623047"/>
     <use xlink:href="#DejaVuSans-2e" x="127.246094"/>
     <use xlink:href="#DejaVuSans-39" x="159.033203"/>
    </g>
   </g>
   <g id="text_46">
    <!-- 86.7 -->
    <g style="fill: #ffa500" transform="translate(447.417969 210.885676) scale(0.08 -0.08)">
     <use xlink:href="#DejaVuSans-38"/>
     <use xlink:href="#DejaVuSans-36" x="63.623047"/>
     <use xlink:href="#DejaVuSans-2e" x="127.246094"/>
     <use xlink:href="#DejaVuSans-37" x="159.033203"/>
    </g>
   </g>
   <g id="text_47">
    <!-- 18.1 -->
    <g style="fill: #ffa500" transform="translate(333.099634 238.27043) scale(0.08 -0.08)">
     <use xlink:href="#DejaVuSans-31"/>
     <use xlink:href="#DejaVuSans-38" x="63.623047"/>
     <use xlink:href="#DejaVuSans-2e" x="127.246094"/>
     <use xlink:href="#DejaVuSans-31" x="159.033203"/>
    </g>
   </g>
   <g id="text_48">
    <!-- 81.7 -->
    <g style="fill: #ffa500" transform="translate(283.657573 166.800898) scale(0.08 -0.08)">
     <use xlink:href="#DejaVuSans-38"/>
     <use xlink:href="#DejaVuSans-31" x="63.623047"/>
     <use xlink:href="#DejaVuSans-2e" x="127.246094"/>
     <use xlink:href="#DejaVuSans-37" x="159.033203"/>
    </g>
   </g>
   <g id="text_49">
    <!-- 59.4 -->
    <g style="fill: #ffa500" transform="translate(212.873941 199.126699) scale(0.08 -0.08)">
     <use xlink:href="#DejaVuSans-35"/>
     <use xlink:href="#DejaVuSans-39" x="63.623047"/>
     <use xlink:href="#DejaVuSans-2e" x="127.246094"/>
     <use xlink:href="#DejaVuSans-34" x="159.033203"/>
    </g>
   </g>
   <g id="text_50">
    <!-- 32.0 -->
    <g style="fill: #ffa500" transform="translate(202.656477 273.94226) scale(0.08 -0.08)">
     <use xlink:href="#DejaVuSans-33"/>
     <use xlink:href="#DejaVuSans-32" x="63.623047"/>
     <use xlink:href="#DejaVuSans-2e" x="127.246094"/>
     <use xlink:href="#DejaVuSans-30" x="159.033203"/>
    </g>
   </g>
   <g id="text_51">
    <!-- 45.5 -->
    <g style="fill: #ffa500" transform="translate(170.803608 342.405094) scale(0.08 -0.08)">
     <use xlink:href="#DejaVuSans-34"/>
     <use xlink:href="#DejaVuSans-35" x="63.623047"/>
     <use xlink:href="#DejaVuSans-2e" x="127.246094"/>
     <use xlink:href="#DejaVuSans-35" x="159.033203"/>
    </g>
   </g>
   <g id="text_52">
    <!-- 24.4 -->
    <g style="fill: #ffa500" transform="translate(234.613749 382.778733) scale(0.08 -0.08)">
     <use xlink:href="#DejaVuSans-32"/>
     <use xlink:href="#DejaVuSans-34" x="63.623047"/>
     <use xlink:href="#DejaVuSans-2e" x="127.246094"/>
     <use xlink:href="#DejaVuSans-34" x="159.033203"/>
    </g>
   </g>
   <g id="text_53">
    <!-- 38.4 -->
    <g style="fill: #ffa500" transform="translate(283.657573 440.19361) scale(0.08 -0.08)">
     <use xlink:href="#DejaVuSans-33"/>
     <use xlink:href="#DejaVuSans-38" x="63.623047"/>
     <use xlink:href="#DejaVuSans-2e" x="127.246094"/>
     <use xlink:href="#DejaVuSans-34" x="159.033203"/>
    </g>
   </g>
   <g id="text_54">
    <!-- 44.6 -->
    <g style="fill: #ffa500" transform="translate(346.890417 398.921681) scale(0.08 -0.08)">
     <use xlink:href="#DejaVuSans-34"/>
     <use xlink:href="#DejaVuSans-34" x="63.623047"/>
     <use xlink:href="#DejaVuSans-2e" x="127.246094"/>
     <use xlink:href="#DejaVuSans-36" x="159.033203"/>
    </g>
   </g>
   <g id="text_55">
    <!-- 67.6 -->
    <g style="fill: #ffa500" transform="translate(419.490367 378.160851) scale(0.08 -0.08)">
     <use xlink:href="#DejaVuSans-36"/>
     <use xlink:href="#DejaVuSans-37" x="63.623047"/>
     <use xlink:href="#DejaVuSans-2e" x="127.246094"/>
     <use xlink:href="#DejaVuSans-36" x="159.033203"/>
    </g>
   </g>
   <g id="text_56">
    <!-- 40.6 -->
    <g style="fill: #800080" transform="translate(408.215973 303.497254) scale(0.08 -0.08)">
     <use xlink:href="#DejaVuSans-34"/>
     <use xlink:href="#DejaVuSans-30" x="63.623047"/>
     <use xlink:href="#DejaVuSans-2e" x="127.246094"/>
     <use xlink:href="#DejaVuSans-36" x="159.033203"/>
    </g>
   </g>
   <g id="text_57">
    <!-- 86.0 -->
    <g style="fill: #800080" transform="translate(419.490367 228.833656) scale(0.08 -0.08)">
     <use xlink:href="#DejaVuSans-38"/>
     <use xlink:href="#DejaVuSans-36" x="63.623047"/>
     <use xlink:href="#DejaVuSans-2e" x="127.246094"/>
     <use xlink:href="#DejaVuSans-30" x="159.033203"/>
    </g>
   </g>
   <g id="text_58">
    <!-- 29.5 -->
    <g style="fill: #800080" transform="translate(360.6812 177.875223) scale(0.08 -0.08)">
     <use xlink:href="#DejaVuSans-32"/>
     <use xlink:href="#DejaVuSans-39" x="63.623047"/>
     <use xlink:href="#DejaVuSans-2e" x="127.246094"/>
     <use xlink:href="#DejaVuSans-35" x="159.033203"/>
    </g>
   </g>
   <g id="text_59">
    <!-- 83.6 -->
    <g style="fill: #800080" transform="translate(278.933061 133.941197) scale(0.08 -0.08)">
     <use xlink:href="#DejaVuSans-38"/>
     <use xlink:href="#DejaVuSans-33" x="63.623047"/>
     <use xlink:href="#DejaVuSans-2e" x="127.246094"/>
     <use xlink:href="#DejaVuSans-36" x="159.033203"/>
    </g>
   </g>
   <g id="text_60">
    <!-- 62.6 -->
    <g style="fill: #800080" transform="translate(191.134133 174.037623) scale(0.08 -0.08)">
     <use xlink:href="#DejaVuSans-36"/>
     <use xlink:href="#DejaVuSans-32" x="63.623047"/>
     <use xlink:href="#DejaVuSans-2e" x="127.246094"/>
     <use xlink:href="#DejaVuSans-36" x="159.033203"/>
    </g>
   </g>
   <g id="text_61">
    <!-- 32.1 -->
    <g style="fill: #800080" transform="translate(170.803608 264.589414) scale(0.08 -0.08)">
     <use xlink:href="#DejaVuSans-33"/>
     <use xlink:href="#DejaVuSans-32" x="63.623047"/>
     <use xlink:href="#DejaVuSans-2e" x="127.246094"/>
     <use xlink:href="#DejaVuSans-31" x="159.033203"/>
    </g>
   </g>
   <g id="text_62">
    <!-- 54.1 -->
    <g style="fill: #800080" transform="translate(138.95074 351.75794) scale(0.08 -0.08)">
     <use xlink:href="#DejaVuSans-35"/>
     <use xlink:href="#DejaVuSans-34" x="63.623047"/>
     <use xlink:href="#DejaVuSans-2e" x="127.246094"/>
     <use xlink:href="#DejaVuSans-31" x="159.033203"/>
    </g>
   </g>
   <g id="text_63">
    <!-- 33.2 -->
    <g style="fill: #800080" transform="translate(191.134133 432.956884) scale(0.08 -0.08)">
     <use xlink:href="#DejaVuSans-33"/>
     <use xlink:href="#DejaVuSans-33" x="63.623047"/>
     <use xlink:href="#DejaVuSans-2e" x="127.246094"/>
     <use xlink:href="#DejaVuSans-32" x="159.033203"/>
    </g>
   </g>
   <g id="text_64">
    <!-- 57.7 -->
    <g style="fill: #800080" transform="translate(278.933061 473.053311) scale(0.08 -0.08)">
     <use xlink:href="#DejaVuSans-35"/>
     <use xlink:href="#DejaVuSans-37" x="63.623047"/>
     <use xlink:href="#DejaVuSans-2e" x="127.246094"/>
     <use xlink:href="#DejaVuSans-37" x="159.033203"/>
    </g>
   </g>
   <g id="text_65">
    <!-- 53.1 -->
    <g style="fill: #800080" transform="translate(374.471984 459.316888) scale(0.08 -0.08)">
     <use xlink:href="#DejaVuSans-35"/>
     <use xlink:href="#DejaVuSans-33" x="63.623047"/>
     <use xlink:href="#DejaVuSans-2e" x="127.246094"/>
     <use xlink:href="#DejaVuSans-31" x="159.033203"/>
    </g>
   </g>
   <g id="text_66">
    <!-- 76.2 -->
    <g style="fill: #800080" transform="translate(447.417969 396.108832) scale(0.08 -0.08)">
     <use xlink:href="#DejaVuSans-37"/>
     <use xlink:href="#DejaVuSans-36" x="63.623047"/>
     <use xlink:href="#DejaVuSans-2e" x="127.246094"/>
     <use xlink:href="#DejaVuSans-32" x="159.033203"/>
    </g>
   </g>
   <g id="text_67">
    <!-- 47.3 -->
    <g style="fill: #0000ff" transform="translate(507.808787 303.497254) scale(0.08 -0.08)">
     <use xlink:href="#DejaVuSans-34"/>
     <use xlink:href="#DejaVuSans-37" x="63.623047"/>
     <use xlink:href="#DejaVuSans-2e" x="127.246094"/>
     <use xlink:href="#DejaVuSans-33" x="159.033203"/>
    </g>
   </g>
   <g id="text_68">
    <!-- 89.0 -->
    <g style="fill: #0000ff" transform="translate(531.200776 157.041736) scale(0.08 -0.08)">
     <use xlink:href="#DejaVuSans-38"/>
     <use xlink:href="#DejaVuSans-39" x="63.623047"/>
     <use xlink:href="#DejaVuSans-2e" x="127.246094"/>
     <use xlink:href="#DejaVuSans-30" x="159.033203"/>
    </g>
   </g>
   <g id="text_69">
    <!-- 34.4 -->
    <g style="fill: #0000ff" transform="translate(374.471984 147.67762) scale(0.08 -0.08)">
     <use xlink:href="#DejaVuSans-33"/>
     <use xlink:href="#DejaVuSans-34" x="63.623047"/>
     <use xlink:href="#DejaVuSans-2e" x="127.246094"/>
     <use xlink:href="#DejaVuSans-34" x="159.033203"/>
    </g>
   </g>
   <g id="text_70">
    <!-- 92.8 -->
    <g style="fill: #0000ff" transform="translate(269.484037 68.221794) scale(0.08 -0.08)">
     <use xlink:href="#DejaVuSans-39"/>
     <use xlink:href="#DejaVuSans-32" x="63.623047"/>
     <use xlink:href="#DejaVuSans-2e" x="127.246094"/>
     <use xlink:href="#DejaVuSans-38" x="159.033203"/>
    </g>
   </g>
   <g id="text_71">
    <!-- 78.8 -->
    <g style="fill: #0000ff" transform="translate(147.654517 123.859472) scale(0.08 -0.08)">
     <use xlink:href="#DejaVuSans-37"/>
     <use xlink:href="#DejaVuSans-38" x="63.623047"/>
     <use xlink:href="#DejaVuSans-2e" x="127.246094"/>
     <use xlink:href="#DejaVuSans-38" x="159.033203"/>
    </g>
   </g>
   <g id="text_72">
    <!-- 34.2 -->
    <g style="fill: #0000ff" transform="translate(75.245003 236.530876) scale(0.08 -0.08)">
     <use xlink:href="#DejaVuSans-33"/>
     <use xlink:href="#DejaVuSans-34" x="63.623047"/>
     <use xlink:href="#DejaVuSans-2e" x="127.246094"/>
     <use xlink:href="#DejaVuSans-32" x="159.033203"/>
    </g>
   </g>
   <g id="text_73">
    <!-- 62.5 -->
    <g style="fill: #0000ff" transform="translate(75.245003 370.463632) scale(0.08 -0.08)">
     <use xlink:href="#DejaVuSans-36"/>
     <use xlink:href="#DejaVuSans-32" x="63.623047"/>
     <use xlink:href="#DejaVuSans-2e" x="127.246094"/>
     <use xlink:href="#DejaVuSans-35" x="159.033203"/>
    </g>
   </g>
   <g id="text_74">
    <!-- 36.4 -->
    <g style="fill: #0000ff" transform="translate(169.394325 458.04596) scale(0.08 -0.08)">
     <use xlink:href="#DejaVuSans-33"/>
     <use xlink:href="#DejaVuSans-36" x="63.623047"/>
     <use xlink:href="#DejaVuSans-2e" x="127.246094"/>
     <use xlink:href="#DejaVuSans-34" x="159.033203"/>
    </g>
   </g>
   <g id="text_75">
    <!-- 66.5 -->
    <g style="fill: #0000ff" transform="translate(274.208549 505.913012) scale(0.08 -0.08)">
     <use xlink:href="#DejaVuSans-36"/>
     <use xlink:href="#DejaVuSans-36" x="63.623047"/>
     <use xlink:href="#DejaVuSans-2e" x="127.246094"/>
     <use xlink:href="#DejaVuSans-35" x="159.033203"/>
    </g>
   </g>
   <g id="text_76">
    <!-- 60.7 -->
    <g style="fill: #0000ff" transform="translate(388.262767 489.514491) scale(0.08 -0.08)">
     <use xlink:href="#DejaVuSans-36"/>
     <use xlink:href="#DejaVuSans-30" x="63.623047"/>
     <use xlink:href="#DejaVuSans-2e" x="127.246094"/>
     <use xlink:href="#DejaVuSans-37" x="159.033203"/>
    </g>
   </g>
   <g id="text_77">
    <!-- 79.4 -->
    <g style="fill: #0000ff" transform="translate(503.273174 432.004792) scale(0.08 -0.08)">
     <use xlink:href="#DejaVuSans-37"/>
     <use xlink:href="#DejaVuSans-39" x="63.623047"/>
     <use xlink:href="#DejaVuSans-2e" x="127.246094"/>
     <use xlink:href="#DejaVuSans-34" x="159.033203"/>
    </g>
   </g>
   <g id="text_78">
    <!-- 48.3 -->
    <g style="fill: #ffff00" transform="translate(541.006392 303.497254) scale(0.08 -0.08)">
     <use xlink:href="#DejaVuSans-34"/>
     <use xlink:href="#DejaVuSans-38" x="63.623047"/>
     <use xlink:href="#DejaVuSans-2e" x="127.246094"/>
     <use xlink:href="#DejaVuSans-33" x="159.033203"/>
    </g>
   </g>
   <g id="text_79">
    <!-- 88.8 -->
    <g style="fill: #ffff00" transform="translate(503.273174 174.989716) scale(0.08 -0.08)">
     <use xlink:href="#DejaVuSans-38"/>
     <use xlink:href="#DejaVuSans-38" x="63.623047"/>
     <use xlink:href="#DejaVuSans-2e" x="127.246094"/>
     <use xlink:href="#DejaVuSans-38" x="159.033203"/>
    </g>
   </g>
   <g id="text_80">
    <!-- 34.5 -->
    <g style="fill: #ffff00" transform="translate(388.262767 117.480016) scale(0.08 -0.08)">
     <use xlink:href="#DejaVuSans-33"/>
     <use xlink:href="#DejaVuSans-34" x="63.623047"/>
     <use xlink:href="#DejaVuSans-2e" x="127.246094"/>
     <use xlink:href="#DejaVuSans-35" x="159.033203"/>
    </g>
   </g>
   <g id="text_81">
    <!-- 92.2 -->
    <g style="fill: #ffff00" transform="translate(274.208549 101.081495) scale(0.08 -0.08)">
     <use xlink:href="#DejaVuSans-39"/>
     <use xlink:href="#DejaVuSans-32" x="63.623047"/>
     <use xlink:href="#DejaVuSans-2e" x="127.246094"/>
     <use xlink:href="#DejaVuSans-32" x="159.033203"/>
    </g>
   </g>
   <g id="text_82">
    <!-- 75.8 -->
    <g style="fill: #ffff00" transform="translate(169.394325 148.948548) scale(0.08 -0.08)">
     <use xlink:href="#DejaVuSans-37"/>
     <use xlink:href="#DejaVuSans-35" x="63.623047"/>
     <use xlink:href="#DejaVuSans-2e" x="127.246094"/>
     <use xlink:href="#DejaVuSans-38" x="159.033203"/>
    </g>
   </g>
   <g id="text_83">
    <!-- 33.5 -->
    <g style="fill: #ffff00" transform="translate(107.097871 245.883722) scale(0.08 -0.08)">
     <use xlink:href="#DejaVuSans-33"/>
     <use xlink:href="#DejaVuSans-33" x="63.623047"/>
     <use xlink:href="#DejaVuSans-2e" x="127.246094"/>
     <use xlink:href="#DejaVuSans-35" x="159.033203"/>
    </g>
   </g>
   <g id="text_84">
    <!-- 59.2 -->
    <g style="fill: #ffff00" transform="translate(107.097871 361.110786) scale(0.08 -0.08)">
     <use xlink:href="#DejaVuSans-35"/>
     <use xlink:href="#DejaVuSans-39" x="63.623047"/>
     <use xlink:href="#DejaVuSans-2e" x="127.246094"/>
     <use xlink:href="#DejaVuSans-32" x="159.033203"/>
    </g>
   </g>
   <g id="text_85">
    <!-- 37.8 -->
    <g style="fill: #ffff00" transform="translate(147.654517 483.135036) scale(0.08 -0.08)">
     <use xlink:href="#DejaVuSans-33"/>
     <use xlink:href="#DejaVuSans-37" x="63.623047"/>
     <use xlink:href="#DejaVuSans-2e" x="127.246094"/>
     <use xlink:href="#DejaVuSans-38" x="159.033203"/>
    </g>
   </g>
   <g id="text_86">
    <!-- 71.2 -->
    <g style="fill: #ffff00" transform="translate(264.759525 571.632414) scale(0.08 -0.08)">
     <use xlink:href="#DejaVuSans-37"/>
     <use xlink:href="#DejaVuSans-31" x="63.623047"/>
     <use xlink:href="#DejaVuSans-2e" x="127.246094"/>
     <use xlink:href="#DejaVuSans-32" x="159.033203"/>
    </g>
   </g>
   <g id="text_87">
    <!-- 63.3 -->
    <g style="fill: #ffff00" transform="translate(415.844334 549.909698) scale(0.08 -0.08)">
     <use xlink:href="#DejaVuSans-36"/>
     <use xlink:href="#DejaVuSans-33" x="63.623047"/>
     <use xlink:href="#DejaVuSans-2e" x="127.246094"/>
     <use xlink:href="#DejaVuSans-33" x="159.033203"/>
    </g>
   </g>
   <g id="text_88">
    <!-- 79.2 -->
    <g style="fill: #ffff00" transform="translate(475.345572 414.056812) scale(0.08 -0.08)">
     <use xlink:href="#DejaVuSans-37"/>
     <use xlink:href="#DejaVuSans-39" x="63.623047"/>
     <use xlink:href="#DejaVuSans-2e" x="127.246094"/>
     <use xlink:href="#DejaVuSans-32" x="159.033203"/>
    </g>
   </g>
   <g id="text_89">
    <!-- 50.0 -->
    <g style="fill: #ff00ff" transform="translate(574.203997 303.497254) scale(0.08 -0.08)">
     <use xlink:href="#DejaVuSans-35"/>
     <use xlink:href="#DejaVuSans-30" x="63.623047"/>
     <use xlink:href="#DejaVuSans-2e" x="127.246094"/>
     <use xlink:href="#DejaVuSans-30" x="159.033203"/>
    </g>
   </g>
   <g id="text_90">
    <!-- 87.0 -->
    <g style="fill: #ff00ff" transform="translate(475.345572 192.937696) scale(0.08 -0.08)">
     <use xlink:href="#DejaVuSans-38"/>
     <use xlink:href="#DejaVuSans-37" x="63.623047"/>
     <use xlink:href="#DejaVuSans-2e" x="127.246094"/>
     <use xlink:href="#DejaVuSans-30" x="159.033203"/>
    </g>
   </g>
   <g id="text_91">
    <!-- 36.0 -->
    <g style="fill: #ff00ff" transform="translate(415.844334 57.084809) scale(0.08 -0.08)">
     <use xlink:href="#DejaVuSans-33"/>
     <use xlink:href="#DejaVuSans-36" x="63.623047"/>
     <use xlink:href="#DejaVuSans-2e" x="127.246094"/>
     <use xlink:href="#DejaVuSans-30" x="159.033203"/>
    </g>
   </g>
   <g id="text_92">
    <!-- 94.0 -->
    <g style="fill: #ff00ff" transform="translate(264.759525 35.362093) scale(0.08 -0.08)">
     <use xlink:href="#DejaVuSans-39"/>
     <use xlink:href="#DejaVuSans-34" x="63.623047"/>
     <use xlink:href="#DejaVuSans-2e" x="127.246094"/>
     <use xlink:href="#DejaVuSans-30" x="159.033203"/>
    </g>
   </g>
   <g id="text_93">
    <!-- 81.4 -->
    <g style="fill: #ff00ff" transform="translate(125.914709 98.770396) scale(0.08 -0.08)">
     <use xlink:href="#DejaVuSans-38"/>
     <use xlink:href="#DejaVuSans-31" x="63.623047"/>
     <use xlink:href="#DejaVuSans-2e" x="127.246094"/>
     <use xlink:href="#DejaVuSans-34" x="159.033203"/>
    </g>
   </g>
   <g id="text_94">
    <!-- 34.7 -->
    <g style="fill: #ff00ff" transform="translate(43.392134 227.17803) scale(0.08 -0.08)">
     <use xlink:href="#DejaVuSans-33"/>
     <use xlink:href="#DejaVuSans-34" x="63.623047"/>
     <use xlink:href="#DejaVuSans-2e" x="127.246094"/>
     <use xlink:href="#DejaVuSans-37" x="159.033203"/>
    </g>
   </g>
   <g id="text_95">
    <!-- 63.7 -->
    <g style="fill: #ff00ff" transform="translate(43.392134 379.816478) scale(0.08 -0.08)">
     <use xlink:href="#DejaVuSans-36"/>
     <use xlink:href="#DejaVuSans-33" x="63.623047"/>
     <use xlink:href="#DejaVuSans-2e" x="127.246094"/>
     <use xlink:href="#DejaVuSans-37" x="159.033203"/>
    </g>
   </g>
   <g id="text_96">
    <!-- 38.2 -->
    <g style="fill: #ff00ff" transform="translate(125.914709 508.224112) scale(0.08 -0.08)">
     <use xlink:href="#DejaVuSans-33"/>
     <use xlink:href="#DejaVuSans-38" x="63.623047"/>
     <use xlink:href="#DejaVuSans-2e" x="127.246094"/>
     <use xlink:href="#DejaVuSans-32" x="159.033203"/>
    </g>
   </g>
   <g id="text_97">
    <!-- 70.9 -->
    <g style="fill: #ff00ff" transform="translate(269.484037 538.772713) scale(0.08 -0.08)">
     <use xlink:href="#DejaVuSans-37"/>
     <use xlink:href="#DejaVuSans-30" x="63.623047"/>
     <use xlink:href="#DejaVuSans-2e" x="127.246094"/>
     <use xlink:href="#DejaVuSans-39" x="159.033203"/>
    </g>
   </g>
   <g id="text_98">
    <!-- 63.2 -->
    <g style="fill: #ff00ff" transform="translate(402.053551 519.712095) scale(0.08 -0.08)">
     <use xlink:href="#DejaVuSans-36"/>
     <use xlink:href="#DejaVuSans-33" x="63.623047"/>
     <use xlink:href="#DejaVuSans-2e" x="127.246094"/>
     <use xlink:href="#DejaVuSans-32" x="159.033203"/>
    </g>
   </g>
   <g id="text_99">
    <!-- 80.8 -->
    <g style="fill: #ff00ff" transform="translate(531.200776 449.952772) scale(0.08 -0.08)">
     <use xlink:href="#DejaVuSans-38"/>
     <use xlink:href="#DejaVuSans-30" x="63.623047"/>
     <use xlink:href="#DejaVuSans-2e" x="127.246094"/>
     <use xlink:href="#DejaVuSans-38" x="159.033203"/>
    </g>
   </g>
   <g id="legend_1">
    <g id="patch_12">
     <path d="M 571.813416 573.489754 
L 693.297791 573.489754 
Q 695.297791 573.489754 695.297791 571.489754 
L 695.297791 455.064754 
Q 695.297791 453.064754 693.297791 453.064754 
L 571.813416 453.064754 
Q 569.813416 453.064754 569.813416 455.064754 
L 569.813416 571.489754 
Q 569.813416 573.489754 571.813416 573.489754 
z
" style="fill: #ffffff; opacity: 0.8; stroke: #cccccc; stroke-linejoin: miter"/>
    </g>
    <g id="line2d_25">
     <path d="M 573.813416 461.163191 
L 583.813416 461.163191 
L 593.813416 461.163191 
" style="fill: none; stroke: #00ffff; stroke-width: 1.5; stroke-linecap: square"/>
    </g>
    <g id="text_100">
     <!-- CLIP-L -->
     <g transform="translate(601.813416 464.663191) scale(0.1 -0.1)">
      <defs>
       <path id="DejaVuSans-43" d="M 4122 4306 
L 4122 3641 
Q 3803 3938 3442 4084 
Q 3081 4231 2675 4231 
Q 1875 4231 1450 3742 
Q 1025 3253 1025 2328 
Q 1025 1406 1450 917 
Q 1875 428 2675 428 
Q 3081 428 3442 575 
Q 3803 722 4122 1019 
L 4122 359 
Q 3791 134 3420 21 
Q 3050 -91 2638 -91 
Q 1578 -91 968 557 
Q 359 1206 359 2328 
Q 359 3453 968 4101 
Q 1578 4750 2638 4750 
Q 3056 4750 3426 4639 
Q 3797 4528 4122 4306 
z
" transform="scale(0.015625)"/>
       <path id="DejaVuSans-4c" d="M 628 4666 
L 1259 4666 
L 1259 531 
L 3531 531 
L 3531 0 
L 628 0 
L 628 4666 
z
" transform="scale(0.015625)"/>
       <path id="DejaVuSans-49" d="M 628 4666 
L 1259 4666 
L 1259 0 
L 628 0 
L 628 4666 
z
" transform="scale(0.015625)"/>
       <path id="DejaVuSans-50" d="M 1259 4147 
L 1259 2394 
L 2053 2394 
Q 2494 2394 2734 2622 
Q 2975 2850 2975 3272 
Q 2975 3691 2734 3919 
Q 2494 4147 2053 4147 
L 1259 4147 
z
M 628 4666 
L 2053 4666 
Q 2838 4666 3239 4311 
Q 3641 3956 3641 3272 
Q 3641 2581 3239 2228 
Q 2838 1875 2053 1875 
L 1259 1875 
L 1259 0 
L 628 0 
L 628 4666 
z
" transform="scale(0.015625)"/>
       <path id="DejaVuSans-2d" d="M 313 2009 
L 1997 2009 
L 1997 1497 
L 313 1497 
L 313 2009 
z
" transform="scale(0.015625)"/>
      </defs>
      <use xlink:href="#DejaVuSans-43"/>
      <use xlink:href="#DejaVuSans-4c" x="69.824219"/>
      <use xlink:href="#DejaVuSans-49" x="125.537109"/>
      <use xlink:href="#DejaVuSans-50" x="155.029297"/>
      <use xlink:href="#DejaVuSans-2d" x="213.082031"/>
      <use xlink:href="#DejaVuSans-4c" x="249.166016"/>
     </g>
    </g>
    <g id="line2d_26">
     <path d="M 573.813416 475.841316 
L 583.813416 475.841316 
L 593.813416 475.841316 
" style="fill: none; stroke: #ff0000; stroke-width: 1.5; stroke-linecap: square"/>
    </g>
    <g id="text_101">
     <!-- SigLIP -->
     <g transform="translate(601.813416 479.341316) scale(0.1 -0.1)">
      <defs>
       <path id="DejaVuSans-53" d="M 3425 4513 
L 3425 3897 
Q 3066 4069 2747 4153 
Q 2428 4238 2131 4238 
Q 1616 4238 1336 4038 
Q 1056 3838 1056 3469 
Q 1056 3159 1242 3001 
Q 1428 2844 1947 2747 
L 2328 2669 
Q 3034 2534 3370 2195 
Q 3706 1856 3706 1288 
Q 3706 609 3251 259 
Q 2797 -91 1919 -91 
Q 1588 -91 1214 -16 
Q 841 59 441 206 
L 441 856 
Q 825 641 1194 531 
Q 1563 422 1919 422 
Q 2459 422 2753 634 
Q 3047 847 3047 1241 
Q 3047 1584 2836 1778 
Q 2625 1972 2144 2069 
L 1759 2144 
Q 1053 2284 737 2584 
Q 422 2884 422 3419 
Q 422 4038 858 4394 
Q 1294 4750 2059 4750 
Q 2388 4750 2728 4690 
Q 3069 4631 3425 4513 
z
" transform="scale(0.015625)"/>
       <path id="DejaVuSans-69" d="M 603 3500 
L 1178 3500 
L 1178 0 
L 603 0 
L 603 3500 
z
M 603 4863 
L 1178 4863 
L 1178 4134 
L 603 4134 
L 603 4863 
z
" transform="scale(0.015625)"/>
       <path id="DejaVuSans-67" d="M 2906 1791 
Q 2906 2416 2648 2759 
Q 2391 3103 1925 3103 
Q 1463 3103 1205 2759 
Q 947 2416 947 1791 
Q 947 1169 1205 825 
Q 1463 481 1925 481 
Q 2391 481 2648 825 
Q 2906 1169 2906 1791 
z
M 3481 434 
Q 3481 -459 3084 -895 
Q 2688 -1331 1869 -1331 
Q 1566 -1331 1297 -1286 
Q 1028 -1241 775 -1147 
L 775 -588 
Q 1028 -725 1275 -790 
Q 1522 -856 1778 -856 
Q 2344 -856 2625 -561 
Q 2906 -266 2906 331 
L 2906 616 
Q 2728 306 2450 153 
Q 2172 0 1784 0 
Q 1141 0 747 490 
Q 353 981 353 1791 
Q 353 2603 747 3093 
Q 1141 3584 1784 3584 
Q 2172 3584 2450 3431 
Q 2728 3278 2906 2969 
L 2906 3500 
L 3481 3500 
L 3481 434 
z
" transform="scale(0.015625)"/>
      </defs>
      <use xlink:href="#DejaVuSans-53"/>
      <use xlink:href="#DejaVuSans-69" x="63.476562"/>
      <use xlink:href="#DejaVuSans-67" x="91.259766"/>
      <use xlink:href="#DejaVuSans-4c" x="154.736328"/>
      <use xlink:href="#DejaVuSans-49" x="210.449219"/>
      <use xlink:href="#DejaVuSans-50" x="239.941406"/>
     </g>
    </g>
    <g id="line2d_27">
     <path d="M 573.813416 490.519441 
L 583.813416 490.519441 
L 593.813416 490.519441 
" style="fill: none; stroke: #008000; stroke-width: 1.5; stroke-linecap: square"/>
    </g>
    <g id="text_102">
     <!-- Unir-BLIP -->
     <g transform="translate(601.813416 494.019441) scale(0.1 -0.1)">
      <defs>
       <path id="DejaVuSans-55" d="M 556 4666 
L 1191 4666 
L 1191 1831 
Q 1191 1081 1462 751 
Q 1734 422 2344 422 
Q 2950 422 3222 751 
Q 3494 1081 3494 1831 
L 3494 4666 
L 4128 4666 
L 4128 1753 
Q 4128 841 3676 375 
Q 3225 -91 2344 -91 
Q 1459 -91 1007 375 
Q 556 841 556 1753 
L 556 4666 
z
" transform="scale(0.015625)"/>
       <path id="DejaVuSans-6e" d="M 3513 2113 
L 3513 0 
L 2938 0 
L 2938 2094 
Q 2938 2591 2744 2837 
Q 2550 3084 2163 3084 
Q 1697 3084 1428 2787 
Q 1159 2491 1159 1978 
L 1159 0 
L 581 0 
L 581 3500 
L 1159 3500 
L 1159 2956 
Q 1366 3272 1645 3428 
Q 1925 3584 2291 3584 
Q 2894 3584 3203 3211 
Q 3513 2838 3513 2113 
z
" transform="scale(0.015625)"/>
       <path id="DejaVuSans-72" d="M 2631 2963 
Q 2534 3019 2420 3045 
Q 2306 3072 2169 3072 
Q 1681 3072 1420 2755 
Q 1159 2438 1159 1844 
L 1159 0 
L 581 0 
L 581 3500 
L 1159 3500 
L 1159 2956 
Q 1341 3275 1631 3429 
Q 1922 3584 2338 3584 
Q 2397 3584 2469 3576 
Q 2541 3569 2628 3553 
L 2631 2963 
z
" transform="scale(0.015625)"/>
       <path id="DejaVuSans-42" d="M 1259 2228 
L 1259 519 
L 2272 519 
Q 2781 519 3026 730 
Q 3272 941 3272 1375 
Q 3272 1813 3026 2020 
Q 2781 2228 2272 2228 
L 1259 2228 
z
M 1259 4147 
L 1259 2741 
L 2194 2741 
Q 2656 2741 2882 2914 
Q 3109 3088 3109 3444 
Q 3109 3797 2882 3972 
Q 2656 4147 2194 4147 
L 1259 4147 
z
M 628 4666 
L 2241 4666 
Q 2963 4666 3353 4366 
Q 3744 4066 3744 3513 
Q 3744 3084 3544 2831 
Q 3344 2578 2956 2516 
Q 3422 2416 3680 2098 
Q 3938 1781 3938 1306 
Q 3938 681 3513 340 
Q 3088 0 2303 0 
L 628 0 
L 628 4666 
z
" transform="scale(0.015625)"/>
      </defs>
      <use xlink:href="#DejaVuSans-55"/>
      <use xlink:href="#DejaVuSans-6e" x="73.193359"/>
      <use xlink:href="#DejaVuSans-69" x="136.572266"/>
      <use xlink:href="#DejaVuSans-72" x="164.355469"/>
      <use xlink:href="#DejaVuSans-2d" x="199.09375"/>
      <use xlink:href="#DejaVuSans-42" x="231.552734"/>
      <use xlink:href="#DejaVuSans-4c" x="300.15625"/>
      <use xlink:href="#DejaVuSans-49" x="355.869141"/>
      <use xlink:href="#DejaVuSans-50" x="385.361328"/>
     </g>
    </g>
    <g id="line2d_28">
     <path d="M 573.813416 505.197566 
L 583.813416 505.197566 
L 593.813416 505.197566 
" style="fill: none; stroke: #ffa500; stroke-width: 1.5; stroke-linecap: square"/>
    </g>
    <g id="text_103">
     <!-- Unir-CLIP -->
     <g transform="translate(601.813416 508.697566) scale(0.1 -0.1)">
      <use xlink:href="#DejaVuSans-55"/>
      <use xlink:href="#DejaVuSans-6e" x="73.193359"/>
      <use xlink:href="#DejaVuSans-69" x="136.572266"/>
      <use xlink:href="#DejaVuSans-72" x="164.355469"/>
      <use xlink:href="#DejaVuSans-2d" x="199.09375"/>
      <use xlink:href="#DejaVuSans-43" x="235.177734"/>
      <use xlink:href="#DejaVuSans-4c" x="305.001953"/>
      <use xlink:href="#DejaVuSans-49" x="360.714844"/>
      <use xlink:href="#DejaVuSans-50" x="390.207031"/>
     </g>
    </g>
    <g id="line2d_29">
     <path d="M 573.813416 519.875691 
L 583.813416 519.875691 
L 593.813416 519.875691 
" style="fill: none; stroke: #800080; stroke-width: 1.5; stroke-linecap: square"/>
    </g>
    <g id="text_104">
     <!-- LamRA-Ret -->
     <g transform="translate(601.813416 523.375691) scale(0.1 -0.1)">
      <defs>
       <path id="DejaVuSans-61" d="M 2194 1759 
Q 1497 1759 1228 1600 
Q 959 1441 959 1056 
Q 959 750 1161 570 
Q 1363 391 1709 391 
Q 2188 391 2477 730 
Q 2766 1069 2766 1631 
L 2766 1759 
L 2194 1759 
z
M 3341 1997 
L 3341 0 
L 2766 0 
L 2766 531 
Q 2569 213 2275 61 
Q 1981 -91 1556 -91 
Q 1019 -91 701 211 
Q 384 513 384 1019 
Q 384 1609 779 1909 
Q 1175 2209 1959 2209 
L 2766 2209 
L 2766 2266 
Q 2766 2663 2505 2880 
Q 2244 3097 1772 3097 
Q 1472 3097 1187 3025 
Q 903 2953 641 2809 
L 641 3341 
Q 956 3463 1253 3523 
Q 1550 3584 1831 3584 
Q 2591 3584 2966 3190 
Q 3341 2797 3341 1997 
z
" transform="scale(0.015625)"/>
       <path id="DejaVuSans-6d" d="M 3328 2828 
Q 3544 3216 3844 3400 
Q 4144 3584 4550 3584 
Q 5097 3584 5394 3201 
Q 5691 2819 5691 2113 
L 5691 0 
L 5113 0 
L 5113 2094 
Q 5113 2597 4934 2840 
Q 4756 3084 4391 3084 
Q 3944 3084 3684 2787 
Q 3425 2491 3425 1978 
L 3425 0 
L 2847 0 
L 2847 2094 
Q 2847 2600 2669 2842 
Q 2491 3084 2119 3084 
Q 1678 3084 1418 2786 
Q 1159 2488 1159 1978 
L 1159 0 
L 581 0 
L 581 3500 
L 1159 3500 
L 1159 2956 
Q 1356 3278 1631 3431 
Q 1906 3584 2284 3584 
Q 2666 3584 2933 3390 
Q 3200 3197 3328 2828 
z
" transform="scale(0.015625)"/>
       <path id="DejaVuSans-52" d="M 2841 2188 
Q 3044 2119 3236 1894 
Q 3428 1669 3622 1275 
L 4263 0 
L 3584 0 
L 2988 1197 
Q 2756 1666 2539 1819 
Q 2322 1972 1947 1972 
L 1259 1972 
L 1259 0 
L 628 0 
L 628 4666 
L 2053 4666 
Q 2853 4666 3247 4331 
Q 3641 3997 3641 3322 
Q 3641 2881 3436 2590 
Q 3231 2300 2841 2188 
z
M 1259 4147 
L 1259 2491 
L 2053 2491 
Q 2509 2491 2742 2702 
Q 2975 2913 2975 3322 
Q 2975 3731 2742 3939 
Q 2509 4147 2053 4147 
L 1259 4147 
z
" transform="scale(0.015625)"/>
       <path id="DejaVuSans-41" d="M 2188 4044 
L 1331 1722 
L 3047 1722 
L 2188 4044 
z
M 1831 4666 
L 2547 4666 
L 4325 0 
L 3669 0 
L 3244 1197 
L 1141 1197 
L 716 0 
L 50 0 
L 1831 4666 
z
" transform="scale(0.015625)"/>
       <path id="DejaVuSans-65" d="M 3597 1894 
L 3597 1613 
L 953 1613 
Q 991 1019 1311 708 
Q 1631 397 2203 397 
Q 2534 397 2845 478 
Q 3156 559 3463 722 
L 3463 178 
Q 3153 47 2828 -22 
Q 2503 -91 2169 -91 
Q 1331 -91 842 396 
Q 353 884 353 1716 
Q 353 2575 817 3079 
Q 1281 3584 2069 3584 
Q 2775 3584 3186 3129 
Q 3597 2675 3597 1894 
z
M 3022 2063 
Q 3016 2534 2758 2815 
Q 2500 3097 2075 3097 
Q 1594 3097 1305 2825 
Q 1016 2553 972 2059 
L 3022 2063 
z
" transform="scale(0.015625)"/>
       <path id="DejaVuSans-74" d="M 1172 4494 
L 1172 3500 
L 2356 3500 
L 2356 3053 
L 1172 3053 
L 1172 1153 
Q 1172 725 1289 603 
Q 1406 481 1766 481 
L 2356 481 
L 2356 0 
L 1766 0 
Q 1100 0 847 248 
Q 594 497 594 1153 
L 594 3053 
L 172 3053 
L 172 3500 
L 594 3500 
L 594 4494 
L 1172 4494 
z
" transform="scale(0.015625)"/>
      </defs>
      <use xlink:href="#DejaVuSans-4c"/>
      <use xlink:href="#DejaVuSans-61" x="55.712891"/>
      <use xlink:href="#DejaVuSans-6d" x="116.992188"/>
      <use xlink:href="#DejaVuSans-52" x="214.404297"/>
      <use xlink:href="#DejaVuSans-41" x="279.886719"/>
      <use xlink:href="#DejaVuSans-2d" x="346.044922"/>
      <use xlink:href="#DejaVuSans-52" x="382.128906"/>
      <use xlink:href="#DejaVuSans-65" x="447.111328"/>
      <use xlink:href="#DejaVuSans-74" x="508.634766"/>
     </g>
    </g>
    <g id="line2d_30">
     <path d="M 573.813416 534.553816 
L 583.813416 534.553816 
L 593.813416 534.553816 
" style="fill: none; stroke: #0000ff; stroke-width: 1.5; stroke-linecap: square"/>
    </g>
    <g id="text_105">
     <!-- U-MARVEL(ours) -->
     <g transform="translate(601.813416 538.053816) scale(0.1 -0.1)">
      <defs>
       <path id="DejaVuSans-4d" d="M 628 4666 
L 1569 4666 
L 2759 1491 
L 3956 4666 
L 4897 4666 
L 4897 0 
L 4281 0 
L 4281 4097 
L 3078 897 
L 2444 897 
L 1241 4097 
L 1241 0 
L 628 0 
L 628 4666 
z
" transform="scale(0.015625)"/>
       <path id="DejaVuSans-56" d="M 1831 0 
L 50 4666 
L 709 4666 
L 2188 738 
L 3669 4666 
L 4325 4666 
L 2547 0 
L 1831 0 
z
" transform="scale(0.015625)"/>
       <path id="DejaVuSans-45" d="M 628 4666 
L 3578 4666 
L 3578 4134 
L 1259 4134 
L 1259 2753 
L 3481 2753 
L 3481 2222 
L 1259 2222 
L 1259 531 
L 3634 531 
L 3634 0 
L 628 0 
L 628 4666 
z
" transform="scale(0.015625)"/>
       <path id="DejaVuSans-28" d="M 1984 4856 
Q 1566 4138 1362 3434 
Q 1159 2731 1159 2009 
Q 1159 1288 1364 580 
Q 1569 -128 1984 -844 
L 1484 -844 
Q 1016 -109 783 600 
Q 550 1309 550 2009 
Q 550 2706 781 3412 
Q 1013 4119 1484 4856 
L 1984 4856 
z
" transform="scale(0.015625)"/>
       <path id="DejaVuSans-6f" d="M 1959 3097 
Q 1497 3097 1228 2736 
Q 959 2375 959 1747 
Q 959 1119 1226 758 
Q 1494 397 1959 397 
Q 2419 397 2687 759 
Q 2956 1122 2956 1747 
Q 2956 2369 2687 2733 
Q 2419 3097 1959 3097 
z
M 1959 3584 
Q 2709 3584 3137 3096 
Q 3566 2609 3566 1747 
Q 3566 888 3137 398 
Q 2709 -91 1959 -91 
Q 1206 -91 779 398 
Q 353 888 353 1747 
Q 353 2609 779 3096 
Q 1206 3584 1959 3584 
z
" transform="scale(0.015625)"/>
       <path id="DejaVuSans-75" d="M 544 1381 
L 544 3500 
L 1119 3500 
L 1119 1403 
Q 1119 906 1312 657 
Q 1506 409 1894 409 
Q 2359 409 2629 706 
Q 2900 1003 2900 1516 
L 2900 3500 
L 3475 3500 
L 3475 0 
L 2900 0 
L 2900 538 
Q 2691 219 2414 64 
Q 2138 -91 1772 -91 
Q 1169 -91 856 284 
Q 544 659 544 1381 
z
M 1991 3584 
L 1991 3584 
z
" transform="scale(0.015625)"/>
       <path id="DejaVuSans-73" d="M 2834 3397 
L 2834 2853 
Q 2591 2978 2328 3040 
Q 2066 3103 1784 3103 
Q 1356 3103 1142 2972 
Q 928 2841 928 2578 
Q 928 2378 1081 2264 
Q 1234 2150 1697 2047 
L 1894 2003 
Q 2506 1872 2764 1633 
Q 3022 1394 3022 966 
Q 3022 478 2636 193 
Q 2250 -91 1575 -91 
Q 1294 -91 989 -36 
Q 684 19 347 128 
L 347 722 
Q 666 556 975 473 
Q 1284 391 1588 391 
Q 1994 391 2212 530 
Q 2431 669 2431 922 
Q 2431 1156 2273 1281 
Q 2116 1406 1581 1522 
L 1381 1569 
Q 847 1681 609 1914 
Q 372 2147 372 2553 
Q 372 3047 722 3315 
Q 1072 3584 1716 3584 
Q 2034 3584 2315 3537 
Q 2597 3491 2834 3397 
z
" transform="scale(0.015625)"/>
       <path id="DejaVuSans-29" d="M 513 4856 
L 1013 4856 
Q 1481 4119 1714 3412 
Q 1947 2706 1947 2009 
Q 1947 1309 1714 600 
Q 1481 -109 1013 -844 
L 513 -844 
Q 928 -128 1133 580 
Q 1338 1288 1338 2009 
Q 1338 2731 1133 3434 
Q 928 4138 513 4856 
z
" transform="scale(0.015625)"/>
      </defs>
      <use xlink:href="#DejaVuSans-55"/>
      <use xlink:href="#DejaVuSans-2d" x="73.193359"/>
      <use xlink:href="#DejaVuSans-4d" x="109.277344"/>
      <use xlink:href="#DejaVuSans-41" x="195.556641"/>
      <use xlink:href="#DejaVuSans-52" x="263.964844"/>
      <use xlink:href="#DejaVuSans-56" x="327.947266"/>
      <use xlink:href="#DejaVuSans-45" x="396.355469"/>
      <use xlink:href="#DejaVuSans-4c" x="459.539062"/>
      <use xlink:href="#DejaVuSans-28" x="515.251953"/>
      <use xlink:href="#DejaVuSans-6f" x="554.265625"/>
      <use xlink:href="#DejaVuSans-75" x="615.447266"/>
      <use xlink:href="#DejaVuSans-72" x="678.826172"/>
      <use xlink:href="#DejaVuSans-73" x="719.939453"/>
      <use xlink:href="#DejaVuSans-29" x="772.039062"/>
     </g>
    </g>
    <g id="line2d_31">
     <path d="M 573.813416 549.231941 
L 583.813416 549.231941 
L 593.813416 549.231941 
" style="fill: none; stroke: #ffff00; stroke-width: 1.5; stroke-linecap: square"/>
    </g>
    <g id="text_106">
     <!-- LamRA -->
     <g transform="translate(601.813416 552.731941) scale(0.1 -0.1)">
      <use xlink:href="#DejaVuSans-4c"/>
      <use xlink:href="#DejaVuSans-61" x="55.712891"/>
      <use xlink:href="#DejaVuSans-6d" x="116.992188"/>
      <use xlink:href="#DejaVuSans-52" x="214.404297"/>
      <use xlink:href="#DejaVuSans-41" x="279.886719"/>
     </g>
    </g>
    <g id="line2d_32">
     <path d="M 573.813416 563.910066 
L 583.813416 563.910066 
L 593.813416 563.910066 
" style="fill: none; stroke: #ff00ff; stroke-width: 1.5; stroke-linecap: square"/>
    </g>
    <g id="text_107">
     <!-- U-MARVEL+(ours) -->
     <g transform="translate(601.813416 567.410066) scale(0.1 -0.1)">
      <defs>
       <path id="DejaVuSans-2b" d="M 2944 4013 
L 2944 2272 
L 4684 2272 
L 4684 1741 
L 2944 1741 
L 2944 0 
L 2419 0 
L 2419 1741 
L 678 1741 
L 678 2272 
L 2419 2272 
L 2419 4013 
L 2944 4013 
z
" transform="scale(0.015625)"/>
      </defs>
      <use xlink:href="#DejaVuSans-55"/>
      <use xlink:href="#DejaVuSans-2d" x="73.193359"/>
      <use xlink:href="#DejaVuSans-4d" x="109.277344"/>
      <use xlink:href="#DejaVuSans-41" x="195.556641"/>
      <use xlink:href="#DejaVuSans-52" x="263.964844"/>
      <use xlink:href="#DejaVuSans-56" x="327.947266"/>
      <use xlink:href="#DejaVuSans-45" x="396.355469"/>
      <use xlink:href="#DejaVuSans-4c" x="459.539062"/>
      <use xlink:href="#DejaVuSans-2b" x="515.251953"/>
      <use xlink:href="#DejaVuSans-28" x="599.041016"/>
      <use xlink:href="#DejaVuSans-6f" x="638.054688"/>
      <use xlink:href="#DejaVuSans-75" x="699.236328"/>
      <use xlink:href="#DejaVuSans-72" x="762.615234"/>
      <use xlink:href="#DejaVuSans-73" x="803.728516"/>
      <use xlink:href="#DejaVuSans-29" x="855.828125"/>
     </g>
    </g>
   </g>
  </g>
 </g>
 <defs>
  <clipPath id="pb23e5cf867">
   <path d="M 589.417791 301.289754 
C 589.417791 264.888183 582.247476 228.840572 568.317198 195.209906 
C 554.38692 161.579241 533.967588 131.019551 508.227791 105.279754 
C 482.487994 79.539957 451.928305 59.120625 418.297639 45.190347 
C 384.666973 31.26007 348.619362 24.089754 312.217791 24.089754 
C 275.816221 24.089754 239.76861 31.26007 206.137944 45.190347 
C 172.507278 59.120625 141.947589 79.539957 116.207792 105.279754 
C 90.467994 131.019551 70.048663 161.579241 56.118385 195.209906 
C 42.188107 228.840572 35.017791 264.888183 35.017791 301.289754 
C 35.017791 337.691324 42.188107 373.738935 56.118385 407.369601 
C 70.048663 441.000267 90.467994 471.559956 116.207792 497.299754 
C 141.947589 523.039551 172.507278 543.458882 206.137944 557.38916 
C 239.76861 571.319438 275.816221 578.489754 312.217791 578.489754 
C 348.619362 578.489754 384.666973 571.319438 418.297639 557.38916 
C 451.928305 543.458882 482.487994 523.039551 508.227791 497.299754 
C 533.967588 471.559956 554.38692 441.000267 568.317198 407.369601 
C 582.247476 373.738935 589.417791 337.691324 589.417791 301.289754 
M 312.217791 301.289754 
C 312.217791 301.289754 312.217791 301.289754 312.217791 301.289754 
C 312.217791 301.289754 312.217791 301.289754 312.217791 301.289754 
C 312.217791 301.289754 312.217791 301.289754 312.217791 301.289754 
C 312.217791 301.289754 312.217791 301.289754 312.217791 301.289754 
C 312.217791 301.289754 312.217791 301.289754 312.217791 301.289754 
C 312.217791 301.289754 312.217791 301.289754 312.217791 301.289754 
C 312.217791 301.289754 312.217791 301.289754 312.217791 301.289754 
C 312.217791 301.289754 312.217791 301.289754 312.217791 301.289754 
C 312.217791 301.289754 312.217791 301.289754 312.217791 301.289754 
C 312.217791 301.289754 312.217791 301.289754 312.217791 301.289754 
C 312.217791 301.289754 312.217791 301.289754 312.217791 301.289754 
C 312.217791 301.289754 312.217791 301.289754 312.217791 301.289754 
C 312.217791 301.289754 312.217791 301.289754 312.217791 301.289754 
C 312.217791 301.289754 312.217791 301.289754 312.217791 301.289754 
C 312.217791 301.289754 312.217791 301.289754 312.217791 301.289754 
C 312.217791 301.289754 312.217791 301.289754 312.217791 301.289754 
z
"/>
  </clipPath>
 </defs>
</svg>
